<mxfile host="app.diagrams.net" agent="Mozilla/5.0 (Windows NT 10.0; Win64; x64) AppleWebKit/537.36 (KHTML, like Gecko) Chrome/141.0.0.0 Safari/537.36 Edg/141.0.0.0" version="28.2.7">
  <diagram name="第 1 页" id="9SMW3FwhZT68cww6xbAH">
    <mxGraphModel dx="1670" dy="2839" grid="1" gridSize="10" guides="1" tooltips="1" connect="1" arrows="1" fold="1" page="1" pageScale="1" pageWidth="827" pageHeight="1169" math="1" shadow="0">
      <root>
        <mxCell id="0" />
        <mxCell id="1" parent="0" />
        <mxCell id="QzYAzKthx8N8dxTdfcL3-1" value="" style="shape=image;verticalLabelPosition=bottom;labelBackgroundColor=default;verticalAlign=top;aspect=fixed;imageAspect=0;editableCssRules=.*;image=data:image/svg+xml,PHN2ZyB4bWxucz0iaHR0cDovL3d3dy53My5vcmcvMjAwMC9zdmciIHhtbG5zOnhsaW5rPSJodHRwOi8vd3d3LnczLm9yZy8xOTk5L3hsaW5rIiB2ZXJzaW9uPSIxLjEiIHZpZXdCb3g9IjAgMCA1MDQgMzYwIiBoZWlnaHQ9IjM2MCIgd2lkdGg9IjUwNCI+JiN4YTsgPG1ldGFkYXRhPiYjeGE7ICAmI3hhOyAgICYjeGE7ICAgICYjeGE7ICAgIDIwMjUtMTAtMjlUMjE6NDQ6MjAuNjg3ODY2JiN4YTsgICAgaW1hZ2Uvc3ZnK3htbCYjeGE7ICAgICYjeGE7ICAgICAmI3hhOyAgICAgIE1hdHBsb3RsaWIgdjMuNy41LCBodHRwczovL21hdHBsb3RsaWIub3JnLyYjeGE7ICAgICAmI3hhOyAgICAmI3hhOyAgICYjeGE7ICAmI3hhOyA8L21ldGFkYXRhPiYjeGE7IDxkZWZzPiYjeGE7ICA8c3R5bGUgdHlwZT0idGV4dC9jc3MiPip7c3Ryb2tlLWxpbmVqb2luOiByb3VuZDsgc3Ryb2tlLWxpbmVjYXA6IGJ1dHR9PC9zdHlsZT4mI3hhOyA8L2RlZnM+JiN4YTsgPGcgaWQ9ImZpZ3VyZV8xIj4mI3hhOyAgPGcgaWQ9InBhdGNoXzEiPiYjeGE7ICAgPHBhdGggc3R5bGU9ImZpbGw6ICNmZmZmZmYiIGQ9Ik0gMCAzNjAgJiMxMDtMIDUwNCAzNjAgJiMxMDtMIDUwNCAwICYjMTA7TCAwIDAgJiMxMDt6Ii8+JiN4YTsgIDwvZz4mI3hhOyAgPGcgaWQ9ImF4ZXNfMSI+JiN4YTsgICA8ZyBpZD0icGF0Y2hfMiI+JiN4YTsgICAgPHBhdGggc3R5bGU9ImZpbGw6ICNmZmZmZmYiIGQ9Ik0gMzMuNjQgMzMyLjEyICYjMTA7TCA0MDEuMjg4IDMzMi4xMiAmIzEwO0wgNDAxLjI4OCAxMC44ICYjMTA7TCAzMy42NCAxMC44ICYjMTA7eiIvPiYjeGE7ICAgPC9nPiYjeGE7ICAgPGcgY2xpcC1wYXRoPSJ1cmwoI3A3YzFiMWVmNzYwKSI+JiN4YTsgICAgPGltYWdlIGhlaWdodD0iMzIxLjg0IiB3aWR0aD0iMzY3LjkyIiB5PSItMTAuMjgiIHg9IjMzLjY0IiB0cmFuc2Zvcm09InNjYWxlKDEgLTEpIHRyYW5zbGF0ZSgwIC0zMjEuODQpIiBpZD0iaW1hZ2UzNzBlZDA4MDE5IiB4bGluazpocmVmPSJkYXRhOmltYWdlL3BuZztiYXNlNjQsJiMxMDtpVkJPUncwS0dnb0FBQUFOU1VoRVVnQUFBZjhBQUFHL0NBWUFBQUJXcWQ3U0FBQUlnRWxFUVZSNG5PM1hUNnNuWWhqSDRabnhHNmJtbkJMbWxJbEowaWl4bUpJVlc4VkMyQ25aV0xHV25SVjJweENsVEpNU3U2bFpZdVVWS01YWjJKeWFUbU0xK1JkeE5NWkxzRG5jOVh5dTZ4VjhOOC96NlQ1KzM3dTdONDl4cE80OGYzMTZ3bkllMjdrNlBXRTVqMjd2VDA5WXpzVTNucHVlc0tUdEsxOVBUMWpPaWVrQkFNRC9TL3dCSUViOEFTQkcvQUVnUnZ3QklFYjhBU0JHL0FFZ1J2d0JJRWI4QVNCRy9BRWdSdndCSUViOEFTQkcvQUVnUnZ3QklFYjhBU0JHL0FFZ1J2d0JJRWI4QVNCRy9BRWdSdndCSUViOEFTQkcvQUVnUnZ3QklFYjhBU0JHL0FFZ1J2d0JJRWI4QVNCRy9BRWdSdndCSUViOEFTQkcvQUVnUnZ3QklFYjhBU0JHL0FFZ1J2d0JJRWI4QVNCRy9BRWdSdndCSUViOEFTQkcvQUVnUnZ3QklFYjhBU0JHL0FFZ1J2d0JJRWI4QVNCRy9BRWdSdndCSUViOEFTQkcvQUVnUnZ3QklFYjhBU0JHL0FFZ1J2d0JJRWI4QVNCRy9BRWdabk5UL28vY2hUTUgweE9XOCtUdDMwNVBXTTdPTGI5T1Qxak9xMjlkbnA2d3BFOHVuNXVlc0J6cEI0QVk4UWVBR1BFSGdCanhCNEFZOFFlQUdQRUhnQmp4QjRBWThRZUFHUEVIZ0JqeEI0QVk4UWVBR1BFSGdCanhCNEFZOFFlQUdQRUhnQmp4QjRBWThRZUFHUEVIZ0JqeEI0QVk4UWVBR1BFSGdCanhCNEFZOFFlQUdQRUhnQmp4QjRBWThRZUFHUEVIZ0JqeEI0QVk4UWVBR1BFSGdCanhCNEFZOFFlQUdQRUhnQmp4QjRBWThRZUFHUEVIZ0JqeEI0QVk4UWVBR1BFSGdCanhCNEFZOFFlQUdQRUhnQmp4QjRBWThRZUFHUEVIZ0JqeEI0QVk4UWVBR1BFSGdCanhCNEFZOFFlQUdQRUhnQmp4QjRBWThRZUFHUEVIZ0JqeEI0Q1l6ZkViMHhQV2MySHI2dlFFK0ZjdmZQSEs5SVRsN0QzendmU0VKWDI2OWREMGhPVzQvQUVnUnZ3QklFYjhBU0JHL0FFZ1J2d0JJRWI4QVNCRy9BRWdSdndCSUViOEFTQkcvQUVnUnZ3QklFYjhBU0JHL0FFZ1J2d0JJRWI4QVNCRy9BRWdSdndCSUViOEFTQkcvQUVnUnZ3QklFYjhBU0JHL0FFZ1J2d0JJRWI4QVNCRy9BRWdSdndCSUViOEFTQkcvQUVnUnZ3QklFYjhBU0JHL0FFZ1J2d0JJRWI4QVNCRy9BRWdSdndCSUViOEFTQkcvQUVnUnZ3QklFYjhBU0JHL0FFZ1J2d0JJRWI4QVNCRy9BRWdSdndCSUViOEFTQkcvQUVnUnZ3QklFYjhBU0JHL0FFZ1J2d0JJRWI4QVNCRy9BRWdSdndCSUViOEFTQkcvQUVnWm5OczU4L3BEY3Y1N3JkN3BpY3M1OVQyWDlNVGxuUGxxZmVuSnl6bitXZGZucDZ3cEJQbnZQK2o1dklIZ0JqeEI0QVk4UWVBR1BFSGdCanhCNEFZOFFlQUdQRUhnQmp4QjRBWThRZUFHUEVIZ0JqeEI0QVk4UWVBR1BFSGdCanhCNEFZOFFlQUdQRUhnQmp4QjRBWThRZUFHUEVIZ0JqeEI0QVk4UWVBR1BFSGdCanhCNEFZOFFlQUdQRUhnQmp4QjRBWThRZUFHUEVIZ0JqeEI0QVk4UWVBR1BFSGdCanhCNEFZOFFlQUdQRUhnQmp4QjRBWThRZUFHUEVIZ0JqeEI0QVk4UWVBR1BFSGdCanhCNEFZOFFlQUdQRUhnQmp4QjRBWThRZUFHUEVIZ0JqeEI0QVk4UWVBR1BFSGdCanhCNEFZOFFlQUdQRUhnQmp4QjRBWThRZUFHUEVIZ0pqTmlXdW5wamVzNThIcEFlczVPTHhqZXNKeW5qNjlQejFoT2I4OHNEVTlZVWx2dm4xeGVzSnlYUDRBRUNQK0FCQWovZ0FRSS80QUVDUCtBQkFqL2dBUUkvNEFFQ1ArQUJBai9nQVFJLzRBRUNQK0FCQWovZ0FRSS80QUVDUCtBQkFqL2dBUUkvNEFFQ1ArQUJBai9nQVFJLzRBRUNQK0FCQWovZ0FRSS80QUVDUCtBQkFqL2dBUUkvNEFFQ1ArQUJBai9nQVFJLzRBRUNQK0FCQWovZ0FRSS80QUVDUCtBQkFqL2dBUUkvNEFFQ1ArQUJBai9nQVFJLzRBRUNQK0FCQWovZ0FRSS80QUVDUCtBQkFqL2dBUUkvNEFFQ1ArQUJBai9nQVFJLzRBRUNQK0FCQWovZ0FRSS80QUVDUCtBQkFqL2dBUUkvNEFFQ1ArQUJBai9nQVFzL243N0IvVEc1Yno4T21ENlFuTE9Ydnl4K2tKeTNuOHM5ZW1KeXpubTkzM3BpY3M2ZlBmNzVxZXNCeVhQd0RFaUQ4QXhJZy9BTVNJUHdERWlEOEF4SWcvQU1TSVB3REVpRDhBeElnL0FNU0lQd0RFaUQ4QXhJZy9BTVNJUHdERWlEOEF4SWcvQU1TSVB3REVpRDhBeElnL0FNU0lQd0RFaUQ4QXhJZy9BTVNJUHdERWlEOEF4SWcvQU1TSVB3REVpRDhBeElnL0FNU0lQd0RFaUQ4QXhJZy9BTVNJUHdERWlEOEF4SWcvQU1TSVB3REVpRDhBeElnL0FNU0lQd0RFaUQ4QXhJZy9BTVNJUHdERWlEOEF4SWcvQU1TSVB3REVpRDhBeElnL0FNU0lQd0RFaUQ4QXhJZy9BTVNJUHdERWlEOEF4SWcvQU1TSVB3REVpRDhBeElnL0FNU0lQd0RFYkRZbmIweHZXTTY5dDE2Zm5yQ2NMMzk2WkhyQ2NyNS82Y1BwQ2N2Wk8vU2YvaGMrT24vLzlJVGx1UHdCSUViOEFTQkcvQUVnUnZ3QklFYjhBU0JHL0FFZ1J2d0JJRWI4QVNCRy9BRWdSdndCSUViOEFTQkcvQUVnUnZ3QklFYjhBU0JHL0FFZ1J2d0JJRWI4QVNCRy9BRWdSdndCSUViOEFTQkcvQUVnUnZ3QklFYjhBU0JHL0FFZ1J2d0JJRWI4QVNCRy9BRWdSdndCSUViOEFTQkcvQUVnUnZ3QklFYjhBU0JHL0FFZ1J2d0JJRWI4QVNCRy9BRWdSdndCSUViOEFTQkcvQUVnUnZ3QklFYjhBU0JHL0FFZ1J2d0JJRWI4QVNCRy9BRWdSdndCSUViOEFTQkcvQUVnUnZ3QklFYjhBU0JHL0FFZ1J2d0JJRWI4QVNCRy9BRWdSdndCSUdaeitQTnQweHVXYytuYUU5TVRsclAzdzkzVEU1YXpmK2FyNlFuTGVYSDM5ZWtKUy9wNC81M3BDY3R4K1FOQWpQZ0RRSXo0QTBDTStBTkFqUGdEUUl6NEEwQ00rQU5BalBnRFFJejRBMENNK0FOQWpQZ0RRSXo0QTBDTStBTkFqUGdEUUl6NEEwQ00rQU5BalBnRFFJejRBMENNK0FOQWpQZ0RRSXo0QTBDTStBTkFqUGdEUUl6NEEwQ00rQU5BalBnRFFJejRBMENNK0FOQWpQZ0RRSXo0QTBDTStBTkFqUGdEUUl6NEEwQ00rQU5BalBnRFFJejRBMENNK0FOQWpQZ0RRSXo0QTBDTStBTkFqUGdEUUl6NEEwQ00rQU5BalBnRFFJejRBMENNK0FOQWpQZ0RRSXo0QTBDTStBTkFqUGdEUUl6NEEwQ00rQU5BalBnRFFJejRBMENNK0FOQXpEODdra1cwMFJwVEhRQUFBQUJKUlU1RXJrSmdnZz09Ii8+JiN4YTsgICA8L2c+JiN4YTsgICA8ZyBpZD0ibWF0cGxvdGxpYi5heGlzXzEiPiYjeGE7ICAgIDxnIGlkPSJ4dGlja18xIj4mI3hhOyAgICAgPGcgaWQ9ImxpbmUyZF8xIj4mI3hhOyAgICAgIDxkZWZzPiYjeGE7ICAgICAgIDxwYXRoIHN0eWxlPSJzdHJva2U6ICMwMDAwMDA7IHN0cm9rZS13aWR0aDogMC44IiBkPSJNIDAgMCAmIzEwO0wgMCAzLjUiIGlkPSJtZmFhMjk3YWI3ZSIvPiYjeGE7ICAgICAgPC9kZWZzPiYjeGE7ICAgICAgPGc+JiN4YTsgICAgICAgPHVzZSBzdHlsZT0ic3Ryb2tlOiAjMDAwMDAwOyBzdHJva2Utd2lkdGg6IDAuOCIgeT0iMzMyLjEyIiB4PSI2NC4yNzczMzMiIHhsaW5rOmhyZWY9IiNtZmFhMjk3YWI3ZSIvPiYjeGE7ICAgICAgPC9nPiYjeGE7ICAgICA8L2c+JiN4YTsgICAgIDxnIGlkPSJ0ZXh0XzEiPiYjeGE7ICAgICAgJiN4YTsgICAgICA8ZyB0cmFuc2Zvcm09InRyYW5zbGF0ZSg0OS45NjMyNzEgMzQ2LjcxODQzNykgc2NhbGUoMC4xIC0wLjEpIj4mI3hhOyAgICAgICA8ZGVmcz4mI3hhOyAgICAgICAgPHBhdGggdHJhbnNmb3JtPSJzY2FsZSgwLjAxNTYyNSkiIGQ9Ik0gMjAzNCA0MjUwICYjMTA7USAxNTQ3IDQyNTAgMTMwMSAzNzcwICYjMTA7USAxMDU2IDMyOTEgMTA1NiAyMzI4ICYjMTA7USAxMDU2IDEzNjkgMTMwMSA4ODkgJiMxMDtRIDE1NDcgNDA5IDIwMzQgNDA5ICYjMTA7USAyNTI1IDQwOSAyNzcwIDg4OSAmIzEwO1EgMzAxNiAxMzY5IDMwMTYgMjMyOCAmIzEwO1EgMzAxNiAzMjkxIDI3NzAgMzc3MCAmIzEwO1EgMjUyNSA0MjUwIDIwMzQgNDI1MCAmIzEwO3omIzEwO00gMjAzNCA0NzUwICYjMTA7USAyODE5IDQ3NTAgMzIzMyA0MTI5ICYjMTA7USAzNjQ3IDM1MDkgMzY0NyAyMzI4ICYjMTA7USAzNjQ3IDExNTAgMzIzMyA1MjkgJiMxMDtRIDI4MTkgLTkxIDIwMzQgLTkxICYjMTA7USAxMjUwIC05MSA4MzYgNTI5ICYjMTA7USA0MjIgMTE1MCA0MjIgMjMyOCAmIzEwO1EgNDIyIDM1MDkgODM2IDQxMjkgJiMxMDtRIDEyNTAgNDc1MCAyMDM0IDQ3NTAgJiMxMDt6IiBpZD0iRGVqYVZ1U2Fucy0zMCIvPiYjeGE7ICAgICAgICA8cGF0aCB0cmFuc2Zvcm09InNjYWxlKDAuMDE1NjI1KSIgZD0iTSA2ODQgNzk0ICYjMTA7TCAxMzQ0IDc5NCAmIzEwO0wgMTM0NCAwICYjMTA7TCA2ODQgMCAmIzEwO0wgNjg0IDc5NCAmIzEwO3oiIGlkPSJEZWphVnVTYW5zLTJlIi8+JiN4YTsgICAgICAgIDxwYXRoIHRyYW5zZm9ybT0ic2NhbGUoMC4wMTU2MjUpIiBkPSJNIDc5NCA1MzEgJiMxMDtMIDE4MjUgNTMxICYjMTA7TCAxODI1IDQwOTEgJiMxMDtMIDcwMyAzODY2ICYjMTA7TCA3MDMgNDQ0MSAmIzEwO0wgMTgxOSA0NjY2ICYjMTA7TCAyNDUwIDQ2NjYgJiMxMDtMIDI0NTAgNTMxICYjMTA7TCAzNDgxIDUzMSAmIzEwO0wgMzQ4MSAwICYjMTA7TCA3OTQgMCAmIzEwO0wgNzk0IDUzMSAmIzEwO3oiIGlkPSJEZWphVnVTYW5zLTMxIi8+JiN4YTsgICAgICAgPC9kZWZzPiYjeGE7ICAgICAgIDx1c2UgeGxpbms6aHJlZj0iI0RlamFWdVNhbnMtMzAiLz4mI3hhOyAgICAgICA8dXNlIHg9IjYzLjYyMzA0NyIgeGxpbms6aHJlZj0iI0RlamFWdVNhbnMtMmUiLz4mI3hhOyAgICAgICA8dXNlIHg9Ijk1LjQxMDE1NiIgeGxpbms6aHJlZj0iI0RlamFWdVNhbnMtMzAiLz4mI3hhOyAgICAgICA8dXNlIHg9IjE1OS4wMzMyMDMiIHhsaW5rOmhyZWY9IiNEZWphVnVTYW5zLTMwIi8+JiN4YTsgICAgICAgPHVzZSB4PSIyMjIuNjU2MjUiIHhsaW5rOmhyZWY9IiNEZWphVnVTYW5zLTMxIi8+JiN4YTsgICAgICA8L2c+JiN4YTsgICAgIDwvZz4mI3hhOyAgICA8L2c+JiN4YTsgICAgPGcgaWQ9Inh0aWNrXzIiPiYjeGE7ICAgICA8ZyBpZD0ibGluZTJkXzIiPiYjeGE7ICAgICAgPGc+JiN4YTsgICAgICAgPHVzZSBzdHlsZT0ic3Ryb2tlOiAjMDAwMDAwOyBzdHJva2Utd2lkdGg6IDAuOCIgeT0iMzMyLjEyIiB4PSIxMjUuNTUyIiB4bGluazpocmVmPSIjbWZhYTI5N2FiN2UiLz4mI3hhOyAgICAgIDwvZz4mI3hhOyAgICAgPC9nPiYjeGE7ICAgICA8ZyBpZD0idGV4dF8yIj4mI3hhOyAgICAgICYjeGE7ICAgICAgPGcgdHJhbnNmb3JtPSJ0cmFuc2xhdGUoMTExLjIzNzkzOCAzNDYuNzE4NDM3KSBzY2FsZSgwLjEgLTAuMSkiPiYjeGE7ICAgICAgIDxkZWZzPiYjeGE7ICAgICAgICA8cGF0aCB0cmFuc2Zvcm09InNjYWxlKDAuMDE1NjI1KSIgZD0iTSA2OTEgNDY2NiAmIzEwO0wgMzE2OSA0NjY2ICYjMTA7TCAzMTY5IDQxMzQgJiMxMDtMIDEyNjkgNDEzNCAmIzEwO0wgMTI2OSAyOTkxICYjMTA7USAxNDA2IDMwMzggMTU0MyAzMDYxICYjMTA7USAxNjgxIDMwODQgMTgxOSAzMDg0ICYjMTA7USAyNjAwIDMwODQgMzA1NiAyNjU2ICYjMTA7USAzNTEzIDIyMjggMzUxMyAxNDk3ICYjMTA7USAzNTEzIDc0NCAzMDQ0IDMyNiAmIzEwO1EgMjU3NSAtOTEgMTcyMiAtOTEgJiMxMDtRIDE0MjggLTkxIDExMjMgLTQxICYjMTA7USA4MTkgOSA0OTQgMTA5ICYjMTA7TCA0OTQgNzQ0ICYjMTA7USA3NzUgNTkxIDEwNzUgNTE2ICYjMTA7USAxMzc1IDQ0MSAxNzA5IDQ0MSAmIzEwO1EgMjI1MCA0NDEgMjU2NSA3MjUgJiMxMDtRIDI4ODEgMTAwOSAyODgxIDE0OTcgJiMxMDtRIDI4ODEgMTk4NCAyNTY1IDIyNjggJiMxMDtRIDIyNTAgMjU1MyAxNzA5IDI1NTMgJiMxMDtRIDE0NTYgMjU1MyAxMjA0IDI0OTcgJiMxMDtRIDk1MyAyNDQxIDY5MSAyMzIyICYjMTA7TCA2OTEgNDY2NiAmIzEwO3oiIGlkPSJEZWphVnVTYW5zLTM1Ii8+JiN4YTsgICAgICAgPC9kZWZzPiYjeGE7ICAgICAgIDx1c2UgeGxpbms6aHJlZj0iI0RlamFWdVNhbnMtMzAiLz4mI3hhOyAgICAgICA8dXNlIHg9IjYzLjYyMzA0NyIgeGxpbms6aHJlZj0iI0RlamFWdVNhbnMtMmUiLz4mI3hhOyAgICAgICA8dXNlIHg9Ijk1LjQxMDE1NiIgeGxpbms6aHJlZj0iI0RlamFWdVNhbnMtMzAiLz4mI3hhOyAgICAgICA8dXNlIHg9IjE1OS4wMzMyMDMiIHhsaW5rOmhyZWY9IiNEZWphVnVTYW5zLTMwIi8+JiN4YTsgICAgICAgPHVzZSB4PSIyMjIuNjU2MjUiIHhsaW5rOmhyZWY9IiNEZWphVnVTYW5zLTM1Ii8+JiN4YTsgICAgICA8L2c+JiN4YTsgICAgIDwvZz4mI3hhOyAgICA8L2c+JiN4YTsgICAgPGcgaWQ9Inh0aWNrXzMiPiYjeGE7ICAgICA8ZyBpZD0ibGluZTJkXzMiPiYjeGE7ICAgICAgPGc+JiN4YTsgICAgICAgPHVzZSBzdHlsZT0ic3Ryb2tlOiAjMDAwMDAwOyBzdHJva2Utd2lkdGg6IDAuOCIgeT0iMzMyLjEyIiB4PSIxODYuODI2NjY3IiB4bGluazpocmVmPSIjbWZhYTI5N2FiN2UiLz4mI3hhOyAgICAgIDwvZz4mI3hhOyAgICAgPC9nPiYjeGE7ICAgICA8ZyBpZD0idGV4dF8zIj4mI3hhOyAgICAgICYjeGE7ICAgICAgPGcgdHJhbnNmb3JtPSJ0cmFuc2xhdGUoMTc1LjY5Mzg1NCAzNDYuNzE4NDM3KSBzY2FsZSgwLjEgLTAuMSkiPiYjeGE7ICAgICAgIDx1c2UgeGxpbms6aHJlZj0iI0RlamFWdVNhbnMtMzAiLz4mI3hhOyAgICAgICA8dXNlIHg9IjYzLjYyMzA0NyIgeGxpbms6aHJlZj0iI0RlamFWdVNhbnMtMmUiLz4mI3hhOyAgICAgICA8dXNlIHg9Ijk1LjQxMDE1NiIgeGxpbms6aHJlZj0iI0RlamFWdVNhbnMtMzAiLz4mI3hhOyAgICAgICA8dXNlIHg9IjE1OS4wMzMyMDMiIHhsaW5rOmhyZWY9IiNEZWphVnVTYW5zLTMxIi8+JiN4YTsgICAgICA8L2c+JiN4YTsgICAgIDwvZz4mI3hhOyAgICA8L2c+JiN4YTsgICAgPGcgaWQ9Inh0aWNrXzQiPiYjeGE7ICAgICA8ZyBpZD0ibGluZTJkXzQiPiYjeGE7ICAgICAgPGc+JiN4YTsgICAgICAgPHVzZSBzdHlsZT0ic3Ryb2tlOiAjMDAwMDAwOyBzdHJva2Utd2lkdGg6IDAuOCIgeT0iMzMyLjEyIiB4PSIyNDguMTAxMzMzIiB4bGluazpocmVmPSIjbWZhYTI5N2FiN2UiLz4mI3hhOyAgICAgIDwvZz4mI3hhOyAgICAgPC9nPiYjeGE7ICAgICA8ZyBpZD0idGV4dF80Ij4mI3hhOyAgICAgICYjeGE7ICAgICAgPGcgdHJhbnNmb3JtPSJ0cmFuc2xhdGUoMjM2Ljk2ODUyMSAzNDYuNzE4NDM3KSBzY2FsZSgwLjEgLTAuMSkiPiYjeGE7ICAgICAgIDx1c2UgeGxpbms6aHJlZj0iI0RlamFWdVNhbnMtMzAiLz4mI3hhOyAgICAgICA8dXNlIHg9IjYzLjYyMzA0NyIgeGxpbms6aHJlZj0iI0RlamFWdVNhbnMtMmUiLz4mI3hhOyAgICAgICA8dXNlIHg9Ijk1LjQxMDE1NiIgeGxpbms6aHJlZj0iI0RlamFWdVNhbnMtMzAiLz4mI3hhOyAgICAgICA8dXNlIHg9IjE1OS4wMzMyMDMiIHhsaW5rOmhyZWY9IiNEZWphVnVTYW5zLTM1Ii8+JiN4YTsgICAgICA8L2c+JiN4YTsgICAgIDwvZz4mI3hhOyAgICA8L2c+JiN4YTsgICAgPGcgaWQ9Inh0aWNrXzUiPiYjeGE7ICAgICA8ZyBpZD0ibGluZTJkXzUiPiYjeGE7ICAgICAgPGc+JiN4YTsgICAgICAgPHVzZSBzdHlsZT0ic3Ryb2tlOiAjMDAwMDAwOyBzdHJva2Utd2lkdGg6IDAuOCIgeT0iMzMyLjEyIiB4PSIzMDkuMzc2IiB4bGluazpocmVmPSIjbWZhYTI5N2FiN2UiLz4mI3hhOyAgICAgIDwvZz4mI3hhOyAgICAgPC9nPiYjeGE7ICAgICA8ZyBpZD0idGV4dF81Ij4mI3hhOyAgICAgICYjeGE7ICAgICAgPGcgdHJhbnNmb3JtPSJ0cmFuc2xhdGUoMzAxLjQyNDQzOCAzNDYuNzE4NDM3KSBzY2FsZSgwLjEgLTAuMSkiPiYjeGE7ICAgICAgIDx1c2UgeGxpbms6aHJlZj0iI0RlamFWdVNhbnMtMzAiLz4mI3hhOyAgICAgICA8dXNlIHg9IjYzLjYyMzA0NyIgeGxpbms6aHJlZj0iI0RlamFWdVNhbnMtMmUiLz4mI3hhOyAgICAgICA8dXNlIHg9Ijk1LjQxMDE1NiIgeGxpbms6aHJlZj0iI0RlamFWdVNhbnMtMzEiLz4mI3hhOyAgICAgIDwvZz4mI3hhOyAgICAgPC9nPiYjeGE7ICAgIDwvZz4mI3hhOyAgICA8ZyBpZD0ieHRpY2tfNiI+JiN4YTsgICAgIDxnIGlkPSJsaW5lMmRfNiI+JiN4YTsgICAgICA8Zz4mI3hhOyAgICAgICA8dXNlIHN0eWxlPSJzdHJva2U6ICMwMDAwMDA7IHN0cm9rZS13aWR0aDogMC44IiB5PSIzMzIuMTIiIHg9IjM3MC42NTA2NjciIHhsaW5rOmhyZWY9IiNtZmFhMjk3YWI3ZSIvPiYjeGE7ICAgICAgPC9nPiYjeGE7ICAgICA8L2c+JiN4YTsgICAgIDxnIGlkPSJ0ZXh0XzYiPiYjeGE7ICAgICAgJiN4YTsgICAgICA8ZyB0cmFuc2Zvcm09InRyYW5zbGF0ZSgzNjIuNjk5MTA0IDM0Ni43MTg0MzcpIHNjYWxlKDAuMSAtMC4xKSI+JiN4YTsgICAgICAgPHVzZSB4bGluazpocmVmPSIjRGVqYVZ1U2Fucy0zMCIvPiYjeGE7ICAgICAgIDx1c2UgeD0iNjMuNjIzMDQ3IiB4bGluazpocmVmPSIjRGVqYVZ1U2Fucy0yZSIvPiYjeGE7ICAgICAgIDx1c2UgeD0iOTUuNDEwMTU2IiB4bGluazpocmVmPSIjRGVqYVZ1U2Fucy0zNSIvPiYjeGE7ICAgICAgPC9nPiYjeGE7ICAgICA8L2c+JiN4YTsgICAgPC9nPiYjeGE7ICAgPC9nPiYjeGE7ICAgPGcgaWQ9Im1hdHBsb3RsaWIuYXhpc18yIj4mI3hhOyAgICA8ZyBpZD0ieXRpY2tfMSI+JiN4YTsgICAgIDxnIGlkPSJsaW5lMmRfNyI+JiN4YTsgICAgICA8ZGVmcz4mI3hhOyAgICAgICA8cGF0aCBzdHlsZT0ic3Ryb2tlOiAjMDAwMDAwOyBzdHJva2Utd2lkdGg6IDAuOCIgZD0iTSAwIDAgJiMxMDtMIC0zLjUgMCIgaWQ9Im1hMWVlMGQ1MWNjIi8+JiN4YTsgICAgICA8L2RlZnM+JiN4YTsgICAgICA8Zz4mI3hhOyAgICAgICA8dXNlIHN0eWxlPSJzdHJva2U6ICMwMDAwMDA7IHN0cm9rZS13aWR0aDogMC44IiB5PSIzMC44ODI1IiB4PSIzMy42NCIgeGxpbms6aHJlZj0iI21hMWVlMGQ1MWNjIi8+JiN4YTsgICAgICA8L2c+JiN4YTsgICAgIDwvZz4mI3hhOyAgICAgPGcgaWQ9InRleHRfNyI+JiN4YTsgICAgICAmI3hhOyAgICAgIDxnIHRyYW5zZm9ybT0idHJhbnNsYXRlKDEwLjczNjg3NSAzNC42ODE3MTkpIHNjYWxlKDAuMSAtMC4xKSI+JiN4YTsgICAgICAgPHVzZSB4bGluazpocmVmPSIjRGVqYVZ1U2Fucy0zMCIvPiYjeGE7ICAgICAgIDx1c2UgeD0iNjMuNjIzMDQ3IiB4bGluazpocmVmPSIjRGVqYVZ1U2Fucy0yZSIvPiYjeGE7ICAgICAgIDx1c2UgeD0iOTUuNDEwMTU2IiB4bGluazpocmVmPSIjRGVqYVZ1U2Fucy0zMSIvPiYjeGE7ICAgICAgPC9nPiYjeGE7ICAgICA8L2c+JiN4YTsgICAgPC9nPiYjeGE7ICAgIDxnIGlkPSJ5dGlja18yIj4mI3hhOyAgICAgPGcgaWQ9ImxpbmUyZF84Ij4mI3hhOyAgICAgIDxnPiYjeGE7ICAgICAgIDx1c2Ugc3R5bGU9InN0cm9rZTogIzAwMDAwMDsgc3Ryb2tlLXdpZHRoOiAwLjgiIHk9IjcxLjA0NzUiIHg9IjMzLjY0IiB4bGluazpocmVmPSIjbWExZWUwZDUxY2MiLz4mI3hhOyAgICAgIDwvZz4mI3hhOyAgICAgPC9nPiYjeGE7ICAgICA8ZyBpZD0idGV4dF84Ij4mI3hhOyAgICAgICYjeGE7ICAgICAgPGcgdHJhbnNmb3JtPSJ0cmFuc2xhdGUoMTAuNzM2ODc1IDc0Ljg0NjcxOSkgc2NhbGUoMC4xIC0wLjEpIj4mI3hhOyAgICAgICA8ZGVmcz4mI3hhOyAgICAgICAgPHBhdGggdHJhbnNmb3JtPSJzY2FsZSgwLjAxNTYyNSkiIGQ9Ik0gMTIyOCA1MzEgJiMxMDtMIDM0MzEgNTMxICYjMTA7TCAzNDMxIDAgJiMxMDtMIDQ2OSAwICYjMTA7TCA0NjkgNTMxICYjMTA7USA4MjggOTAzIDE0NDggMTUyOSAmIzEwO1EgMjA2OSAyMTU2IDIyMjggMjMzOCAmIzEwO1EgMjUzMSAyNjc4IDI2NTEgMjkxNCAmIzEwO1EgMjc3MiAzMTUwIDI3NzIgMzM3OCAmIzEwO1EgMjc3MiAzNzUwIDI1MTEgMzk4NCAmIzEwO1EgMjI1MCA0MjE5IDE4MzEgNDIxOSAmIzEwO1EgMTUzNCA0MjE5IDEyMDQgNDExNiAmIzEwO1EgODc1IDQwMTMgNTAwIDM4MDMgJiMxMDtMIDUwMCA0NDQxICYjMTA7USA4ODEgNDU5NCAxMjEyIDQ2NzIgJiMxMDtRIDE1NDQgNDc1MCAxODE5IDQ3NTAgJiMxMDtRIDI1NDQgNDc1MCAyOTc1IDQzODcgJiMxMDtRIDM0MDYgNDAyNSAzNDA2IDM0MTkgJiMxMDtRIDM0MDYgMzEzMSAzMjk4IDI4NzMgJiMxMDtRIDMxOTEgMjYxNiAyOTA2IDIyNjYgJiMxMDtRIDI4MjggMjE3NSAyNDA5IDE3NDIgJiMxMDtRIDE5OTEgMTMwOSAxMjI4IDUzMSAmIzEwO3oiIGlkPSJEZWphVnVTYW5zLTMyIi8+JiN4YTsgICAgICAgPC9kZWZzPiYjeGE7ICAgICAgIDx1c2UgeGxpbms6aHJlZj0iI0RlamFWdVNhbnMtMzAiLz4mI3hhOyAgICAgICA8dXNlIHg9IjYzLjYyMzA0NyIgeGxpbms6aHJlZj0iI0RlamFWdVNhbnMtMmUiLz4mI3hhOyAgICAgICA8dXNlIHg9Ijk1LjQxMDE1NiIgeGxpbms6aHJlZj0iI0RlamFWdVNhbnMtMzIiLz4mI3hhOyAgICAgIDwvZz4mI3hhOyAgICAgPC9nPiYjeGE7ICAgIDwvZz4mI3hhOyAgICA8ZyBpZD0ieXRpY2tfMyI+JiN4YTsgICAgIDxnIGlkPSJsaW5lMmRfOSI+JiN4YTsgICAgICA8Zz4mI3hhOyAgICAgICA8dXNlIHN0eWxlPSJzdHJva2U6ICMwMDAwMDA7IHN0cm9rZS13aWR0aDogMC44IiB5PSIxMTEuMjEyNSIgeD0iMzMuNjQiIHhsaW5rOmhyZWY9IiNtYTFlZTBkNTFjYyIvPiYjeGE7ICAgICAgPC9nPiYjeGE7ICAgICA8L2c+JiN4YTsgICAgIDxnIGlkPSJ0ZXh0XzkiPiYjeGE7ICAgICAgJiN4YTsgICAgICA8ZyB0cmFuc2Zvcm09InRyYW5zbGF0ZSgxMC43MzY4NzUgMTE1LjAxMTcxOSkgc2NhbGUoMC4xIC0wLjEpIj4mI3hhOyAgICAgICA8ZGVmcz4mI3hhOyAgICAgICAgPHBhdGggdHJhbnNmb3JtPSJzY2FsZSgwLjAxNTYyNSkiIGQ9Ik0gMjU5NyAyNTE2ICYjMTA7USAzMDUwIDI0MTkgMzMwNCAyMTEyICYjMTA7USAzNTU5IDE4MDYgMzU1OSAxMzU2ICYjMTA7USAzNTU5IDY2NiAzMDg0IDI4NyAmIzEwO1EgMjYwOSAtOTEgMTczNCAtOTEgJiMxMDtRIDE0NDEgLTkxIDExMzAgLTMzICYjMTA7USA4MTkgMjUgNDg4IDE0MSAmIzEwO0wgNDg4IDc1MCAmIzEwO1EgNzUwIDU5NyAxMDYyIDUxOSAmIzEwO1EgMTM3NSA0NDEgMTcxNiA0NDEgJiMxMDtRIDIzMDkgNDQxIDI2MjAgNjc1ICYjMTA7USAyOTMxIDkwOSAyOTMxIDEzNTYgJiMxMDtRIDI5MzEgMTc2OSAyNjQyIDIwMDEgJiMxMDtRIDIzNTMgMjIzNCAxODM4IDIyMzQgJiMxMDtMIDEyOTQgMjIzNCAmIzEwO0wgMTI5NCAyNzUzICYjMTA7TCAxODYzIDI3NTMgJiMxMDtRIDIzMjggMjc1MyAyNTc1IDI5MzkgJiMxMDtRIDI4MjIgMzEyNSAyODIyIDM0NzUgJiMxMDtRIDI4MjIgMzgzNCAyNTY3IDQwMjYgJiMxMDtRIDIzMTMgNDIxOSAxODM4IDQyMTkgJiMxMDtRIDE1NzggNDIxOSAxMjgxIDQxNjIgJiMxMDtRIDk4NCA0MTA2IDYyOCAzOTg4ICYjMTA7TCA2MjggNDU1MCAmIzEwO1EgOTg4IDQ2NTAgMTMwMiA0NzAwICYjMTA7USAxNjE2IDQ3NTAgMTg5NCA0NzUwICYjMTA7USAyNjEzIDQ3NTAgMzAzMSA0NDIzICYjMTA7USAzNDUwIDQwOTcgMzQ1MCAzNTQxICYjMTA7USAzNDUwIDMxNTMgMzIyOCAyODg2ICYjMTA7USAzMDA2IDI2MTkgMjU5NyAyNTE2ICYjMTA7eiIgaWQ9IkRlamFWdVNhbnMtMzMiLz4mI3hhOyAgICAgICA8L2RlZnM+JiN4YTsgICAgICAgPHVzZSB4bGluazpocmVmPSIjRGVqYVZ1U2Fucy0zMCIvPiYjeGE7ICAgICAgIDx1c2UgeD0iNjMuNjIzMDQ3IiB4bGluazpocmVmPSIjRGVqYVZ1U2Fucy0yZSIvPiYjeGE7ICAgICAgIDx1c2UgeD0iOTUuNDEwMTU2IiB4bGluazpocmVmPSIjRGVqYVZ1U2Fucy0zMyIvPiYjeGE7ICAgICAgPC9nPiYjeGE7ICAgICA8L2c+JiN4YTsgICAgPC9nPiYjeGE7ICAgIDxnIGlkPSJ5dGlja180Ij4mI3hhOyAgICAgPGcgaWQ9ImxpbmUyZF8xMCI+JiN4YTsgICAgICA8Zz4mI3hhOyAgICAgICA8dXNlIHN0eWxlPSJzdHJva2U6ICMwMDAwMDA7IHN0cm9rZS13aWR0aDogMC44IiB5PSIxNTEuMzc3NSIgeD0iMzMuNjQiIHhsaW5rOmhyZWY9IiNtYTFlZTBkNTFjYyIvPiYjeGE7ICAgICAgPC9nPiYjeGE7ICAgICA8L2c+JiN4YTsgICAgIDxnIGlkPSJ0ZXh0XzEwIj4mI3hhOyAgICAgICYjeGE7ICAgICAgPGcgdHJhbnNmb3JtPSJ0cmFuc2xhdGUoMTAuNzM2ODc1IDE1NS4xNzY3MTkpIHNjYWxlKDAuMSAtMC4xKSI+JiN4YTsgICAgICAgPGRlZnM+JiN4YTsgICAgICAgIDxwYXRoIHRyYW5zZm9ybT0ic2NhbGUoMC4wMTU2MjUpIiBkPSJNIDI0MTkgNDExNiAmIzEwO0wgODI1IDE2MjUgJiMxMDtMIDI0MTkgMTYyNSAmIzEwO0wgMjQxOSA0MTE2ICYjMTA7eiYjMTA7TSAyMjUzIDQ2NjYgJiMxMDtMIDMwNDcgNDY2NiAmIzEwO0wgMzA0NyAxNjI1ICYjMTA7TCAzNzEzIDE2MjUgJiMxMDtMIDM3MTMgMTEwMCAmIzEwO0wgMzA0NyAxMTAwICYjMTA7TCAzMDQ3IDAgJiMxMDtMIDI0MTkgMCAmIzEwO0wgMjQxOSAxMTAwICYjMTA7TCAzMTMgMTEwMCAmIzEwO0wgMzEzIDE3MDkgJiMxMDtMIDIyNTMgNDY2NiAmIzEwO3oiIGlkPSJEZWphVnVTYW5zLTM0Ii8+JiN4YTsgICAgICAgPC9kZWZzPiYjeGE7ICAgICAgIDx1c2UgeGxpbms6aHJlZj0iI0RlamFWdVNhbnMtMzAiLz4mI3hhOyAgICAgICA8dXNlIHg9IjYzLjYyMzA0NyIgeGxpbms6aHJlZj0iI0RlamFWdVNhbnMtMmUiLz4mI3hhOyAgICAgICA8dXNlIHg9Ijk1LjQxMDE1NiIgeGxpbms6aHJlZj0iI0RlamFWdVNhbnMtMzQiLz4mI3hhOyAgICAgIDwvZz4mI3hhOyAgICAgPC9nPiYjeGE7ICAgIDwvZz4mI3hhOyAgICA8ZyBpZD0ieXRpY2tfNSI+JiN4YTsgICAgIDxnIGlkPSJsaW5lMmRfMTEiPiYjeGE7ICAgICAgPGc+JiN4YTsgICAgICAgPHVzZSBzdHlsZT0ic3Ryb2tlOiAjMDAwMDAwOyBzdHJva2Utd2lkdGg6IDAuOCIgeT0iMTkxLjU0MjUiIHg9IjMzLjY0IiB4bGluazpocmVmPSIjbWExZWUwZDUxY2MiLz4mI3hhOyAgICAgIDwvZz4mI3hhOyAgICAgPC9nPiYjeGE7ICAgICA8ZyBpZD0idGV4dF8xMSI+JiN4YTsgICAgICAmI3hhOyAgICAgIDxnIHRyYW5zZm9ybT0idHJhbnNsYXRlKDEwLjczNjg3NSAxOTUuMzQxNzE5KSBzY2FsZSgwLjEgLTAuMSkiPiYjeGE7ICAgICAgIDx1c2UgeGxpbms6aHJlZj0iI0RlamFWdVNhbnMtMzAiLz4mI3hhOyAgICAgICA8dXNlIHg9IjYzLjYyMzA0NyIgeGxpbms6aHJlZj0iI0RlamFWdVNhbnMtMmUiLz4mI3hhOyAgICAgICA8dXNlIHg9Ijk1LjQxMDE1NiIgeGxpbms6aHJlZj0iI0RlamFWdVNhbnMtMzUiLz4mI3hhOyAgICAgIDwvZz4mI3hhOyAgICAgPC9nPiYjeGE7ICAgIDwvZz4mI3hhOyAgICA8ZyBpZD0ieXRpY2tfNiI+JiN4YTsgICAgIDxnIGlkPSJsaW5lMmRfMTIiPiYjeGE7ICAgICAgPGc+JiN4YTsgICAgICAgPHVzZSBzdHlsZT0ic3Ryb2tlOiAjMDAwMDAwOyBzdHJva2Utd2lkdGg6IDAuOCIgeT0iMjMxLjcwNzUiIHg9IjMzLjY0IiB4bGluazpocmVmPSIjbWExZWUwZDUxY2MiLz4mI3hhOyAgICAgIDwvZz4mI3hhOyAgICAgPC9nPiYjeGE7ICAgICA8ZyBpZD0idGV4dF8xMiI+JiN4YTsgICAgICAmI3hhOyAgICAgIDxnIHRyYW5zZm9ybT0idHJhbnNsYXRlKDEwLjczNjg3NSAyMzUuNTA2NzE5KSBzY2FsZSgwLjEgLTAuMSkiPiYjeGE7ICAgICAgIDxkZWZzPiYjeGE7ICAgICAgICA8cGF0aCB0cmFuc2Zvcm09InNjYWxlKDAuMDE1NjI1KSIgZD0iTSAyMTEzIDI1ODQgJiMxMDtRIDE2ODggMjU4NCAxNDM5IDIyOTMgJiMxMDtRIDExOTEgMjAwMyAxMTkxIDE0OTcgJiMxMDtRIDExOTEgOTk0IDE0MzkgNzAxICYjMTA7USAxNjg4IDQwOSAyMTEzIDQwOSAmIzEwO1EgMjUzOCA0MDkgMjc4NiA3MDEgJiMxMDtRIDMwMzQgOTk0IDMwMzQgMTQ5NyAmIzEwO1EgMzAzNCAyMDAzIDI3ODYgMjI5MyAmIzEwO1EgMjUzOCAyNTg0IDIxMTMgMjU4NCAmIzEwO3omIzEwO00gMzM2NiA0NTYzICYjMTA7TCAzMzY2IDM5ODggJiMxMDtRIDMxMjggNDEwMCAyODg2IDQxNTkgJiMxMDtRIDI2NDQgNDIxOSAyNDA2IDQyMTkgJiMxMDtRIDE3ODEgNDIxOSAxNDUxIDM3OTcgJiMxMDtRIDExMjIgMzM3NSAxMDc1IDI1MjIgJiMxMDtRIDEyNTkgMjc5NCAxNTM3IDI5MzkgJiMxMDtRIDE4MTYgMzA4NCAyMTUwIDMwODQgJiMxMDtRIDI4NTMgMzA4NCAzMjYxIDI2NTcgJiMxMDtRIDM2NjkgMjIzMSAzNjY5IDE0OTcgJiMxMDtRIDM2NjkgNzc4IDMyNDQgMzQzICYjMTA7USAyODE5IC05MSAyMTEzIC05MSAmIzEwO1EgMTMwMyAtOTEgODc1IDUyOSAmIzEwO1EgNDQ3IDExNTAgNDQ3IDIzMjggJiMxMDtRIDQ0NyAzNDM0IDk3MiA0MDkyICYjMTA7USAxNDk3IDQ3NTAgMjM4MSA0NzUwICYjMTA7USAyNjE5IDQ3NTAgMjg2MSA0NzAzICYjMTA7USAzMTAzIDQ2NTYgMzM2NiA0NTYzICYjMTA7eiIgaWQ9IkRlamFWdVNhbnMtMzYiLz4mI3hhOyAgICAgICA8L2RlZnM+JiN4YTsgICAgICAgPHVzZSB4bGluazpocmVmPSIjRGVqYVZ1U2Fucy0zMCIvPiYjeGE7ICAgICAgIDx1c2UgeD0iNjMuNjIzMDQ3IiB4bGluazpocmVmPSIjRGVqYVZ1U2Fucy0yZSIvPiYjeGE7ICAgICAgIDx1c2UgeD0iOTUuNDEwMTU2IiB4bGluazpocmVmPSIjRGVqYVZ1U2Fucy0zNiIvPiYjeGE7ICAgICAgPC9nPiYjeGE7ICAgICA8L2c+JiN4YTsgICAgPC9nPiYjeGE7ICAgIDxnIGlkPSJ5dGlja183Ij4mI3hhOyAgICAgPGcgaWQ9ImxpbmUyZF8xMyI+JiN4YTsgICAgICA8Zz4mI3hhOyAgICAgICA8dXNlIHN0eWxlPSJzdHJva2U6ICMwMDAwMDA7IHN0cm9rZS13aWR0aDogMC44IiB5PSIyNzEuODcyNSIgeD0iMzMuNjQiIHhsaW5rOmhyZWY9IiNtYTFlZTBkNTFjYyIvPiYjeGE7ICAgICAgPC9nPiYjeGE7ICAgICA8L2c+JiN4YTsgICAgIDxnIGlkPSJ0ZXh0XzEzIj4mI3hhOyAgICAgICYjeGE7ICAgICAgPGcgdHJhbnNmb3JtPSJ0cmFuc2xhdGUoMTAuNzM2ODc1IDI3NS42NzE3MTkpIHNjYWxlKDAuMSAtMC4xKSI+JiN4YTsgICAgICAgPGRlZnM+JiN4YTsgICAgICAgIDxwYXRoIHRyYW5zZm9ybT0ic2NhbGUoMC4wMTU2MjUpIiBkPSJNIDUyNSA0NjY2ICYjMTA7TCAzNTI1IDQ2NjYgJiMxMDtMIDM1MjUgNDM5NyAmIzEwO0wgMTgzMSAwICYjMTA7TCAxMTcyIDAgJiMxMDtMIDI3NjYgNDEzNCAmIzEwO0wgNTI1IDQxMzQgJiMxMDtMIDUyNSA0NjY2ICYjMTA7eiIgaWQ9IkRlamFWdVNhbnMtMzciLz4mI3hhOyAgICAgICA8L2RlZnM+JiN4YTsgICAgICAgPHVzZSB4bGluazpocmVmPSIjRGVqYVZ1U2Fucy0zMCIvPiYjeGE7ICAgICAgIDx1c2UgeD0iNjMuNjIzMDQ3IiB4bGluazpocmVmPSIjRGVqYVZ1U2Fucy0yZSIvPiYjeGE7ICAgICAgIDx1c2UgeD0iOTUuNDEwMTU2IiB4bGluazpocmVmPSIjRGVqYVZ1U2Fucy0zNyIvPiYjeGE7ICAgICAgPC9nPiYjeGE7ICAgICA8L2c+JiN4YTsgICAgPC9nPiYjeGE7ICAgIDxnIGlkPSJ5dGlja184Ij4mI3hhOyAgICAgPGcgaWQ9ImxpbmUyZF8xNCI+JiN4YTsgICAgICA8Zz4mI3hhOyAgICAgICA8dXNlIHN0eWxlPSJzdHJva2U6ICMwMDAwMDA7IHN0cm9rZS13aWR0aDogMC44IiB5PSIzMTIuMDM3NSIgeD0iMzMuNjQiIHhsaW5rOmhyZWY9IiNtYTFlZTBkNTFjYyIvPiYjeGE7ICAgICAgPC9nPiYjeGE7ICAgICA8L2c+JiN4YTsgICAgIDxnIGlkPSJ0ZXh0XzE0Ij4mI3hhOyAgICAgICYjeGE7ICAgICAgPGcgdHJhbnNmb3JtPSJ0cmFuc2xhdGUoMTAuNzM2ODc1IDMxNS44MzY3MTkpIHNjYWxlKDAuMSAtMC4xKSI+JiN4YTsgICAgICAgPGRlZnM+JiN4YTsgICAgICAgIDxwYXRoIHRyYW5zZm9ybT0ic2NhbGUoMC4wMTU2MjUpIiBkPSJNIDIwMzQgMjIxNiAmIzEwO1EgMTU4NCAyMjE2IDEzMjYgMTk3NSAmIzEwO1EgMTA2OSAxNzM0IDEwNjkgMTMxMyAmIzEwO1EgMTA2OSA4OTEgMTMyNiA2NTAgJiMxMDtRIDE1ODQgNDA5IDIwMzQgNDA5ICYjMTA7USAyNDg0IDQwOSAyNzQzIDY1MSAmIzEwO1EgMzAwMyA4OTQgMzAwMyAxMzEzICYjMTA7USAzMDAzIDE3MzQgMjc0NSAxOTc1ICYjMTA7USAyNDg4IDIyMTYgMjAzNCAyMjE2ICYjMTA7eiYjMTA7TSAxNDAzIDI0ODQgJiMxMDtRIDk5NyAyNTg0IDc3MCAyODYyICYjMTA7USA1NDQgMzE0MSA1NDQgMzU0MSAmIzEwO1EgNTQ0IDQxMDAgOTQyIDQ0MjUgJiMxMDtRIDEzNDEgNDc1MCAyMDM0IDQ3NTAgJiMxMDtRIDI3MzEgNDc1MCAzMTI4IDQ0MjUgJiMxMDtRIDM1MjUgNDEwMCAzNTI1IDM1NDEgJiMxMDtRIDM1MjUgMzE0MSAzMjk4IDI4NjIgJiMxMDtRIDMwNzIgMjU4NCAyNjY5IDI0ODQgJiMxMDtRIDMxMjUgMjM3OCAzMzc5IDIwNjggJiMxMDtRIDM2MzQgMTc1OSAzNjM0IDEzMTMgJiMxMDtRIDM2MzQgNjM0IDMyMjAgMjcxICYjMTA7USAyODA2IC05MSAyMDM0IC05MSAmIzEwO1EgMTI2MyAtOTEgODQ4IDI3MSAmIzEwO1EgNDM0IDYzNCA0MzQgMTMxMyAmIzEwO1EgNDM0IDE3NTkgNjkwIDIwNjggJiMxMDtRIDk0NyAyMzc4IDE0MDMgMjQ4NCAmIzEwO3omIzEwO00gMTE3MiAzNDgxICYjMTA7USAxMTcyIDMxMTkgMTM5OCAyOTE2ICYjMTA7USAxNjI1IDI3MTMgMjAzNCAyNzEzICYjMTA7USAyNDQxIDI3MTMgMjY3MCAyOTE2ICYjMTA7USAyOTAwIDMxMTkgMjkwMCAzNDgxICYjMTA7USAyOTAwIDM4NDQgMjY3MCA0MDQ3ICYjMTA7USAyNDQxIDQyNTAgMjAzNCA0MjUwICYjMTA7USAxNjI1IDQyNTAgMTM5OCA0MDQ3ICYjMTA7USAxMTcyIDM4NDQgMTE3MiAzNDgxICYjMTA7eiIgaWQ9IkRlamFWdVNhbnMtMzgiLz4mI3hhOyAgICAgICA8L2RlZnM+JiN4YTsgICAgICAgPHVzZSB4bGluazpocmVmPSIjRGVqYVZ1U2Fucy0zMCIvPiYjeGE7ICAgICAgIDx1c2UgeD0iNjMuNjIzMDQ3IiB4bGluazpocmVmPSIjRGVqYVZ1U2Fucy0yZSIvPiYjeGE7ICAgICAgIDx1c2UgeD0iOTUuNDEwMTU2IiB4bGluazpocmVmPSIjRGVqYVZ1U2Fucy0zOCIvPiYjeGE7ICAgICAgPC9nPiYjeGE7ICAgICA8L2c+JiN4YTsgICAgPC9nPiYjeGE7ICAgPC9nPiYjeGE7ICAgPGcgaWQ9InBhdGNoXzMiPiYjeGE7ICAgIDxwYXRoIHN0eWxlPSJmaWxsOiBub25lOyBzdHJva2U6ICMwMDAwMDA7IHN0cm9rZS13aWR0aDogMC44OyBzdHJva2UtbGluZWpvaW46IG1pdGVyOyBzdHJva2UtbGluZWNhcDogc3F1YXJlIiBkPSJNIDMzLjY0IDMzMi4xMiAmIzEwO0wgMzMuNjQgMTAuOCIvPiYjeGE7ICAgPC9nPiYjeGE7ICAgPGcgaWQ9InBhdGNoXzQiPiYjeGE7ICAgIDxwYXRoIHN0eWxlPSJmaWxsOiBub25lOyBzdHJva2U6ICMwMDAwMDA7IHN0cm9rZS13aWR0aDogMC44OyBzdHJva2UtbGluZWpvaW46IG1pdGVyOyBzdHJva2UtbGluZWNhcDogc3F1YXJlIiBkPSJNIDQwMS4yODggMzMyLjEyICYjMTA7TCA0MDEuMjg4IDEwLjgiLz4mI3hhOyAgIDwvZz4mI3hhOyAgIDxnIGlkPSJwYXRjaF81Ij4mI3hhOyAgICA8cGF0aCBzdHlsZT0iZmlsbDogbm9uZTsgc3Ryb2tlOiAjMDAwMDAwOyBzdHJva2Utd2lkdGg6IDAuODsgc3Ryb2tlLWxpbmVqb2luOiBtaXRlcjsgc3Ryb2tlLWxpbmVjYXA6IHNxdWFyZSIgZD0iTSAzMy42NCAzMzIuMTIgJiMxMDtMIDQwMS4yODggMzMyLjEyIi8+JiN4YTsgICA8L2c+JiN4YTsgICA8ZyBpZD0icGF0Y2hfNiI+JiN4YTsgICAgPHBhdGggc3R5bGU9ImZpbGw6IG5vbmU7IHN0cm9rZTogIzAwMDAwMDsgc3Ryb2tlLXdpZHRoOiAwLjg7IHN0cm9rZS1saW5lam9pbjogbWl0ZXI7IHN0cm9rZS1saW5lY2FwOiBzcXVhcmUiIGQ9Ik0gMzMuNjQgMTAuOCAmIzEwO0wgNDAxLjI4OCAxMC44Ii8+JiN4YTsgICA8L2c+JiN4YTsgICA8ZyBpZD0idGV4dF8xNSI+JiN4YTsgICAgJiN4YTsgICAgPGcgdHJhbnNmb3JtPSJ0cmFuc2xhdGUoNTIuODI2MDgzIDMzLjA5KSBzY2FsZSgwLjA4IC0wLjA4KSIgc3R5bGU9ImZpbGw6ICNmZmZmZmYiPiYjeGE7ICAgICA8dXNlIHhsaW5rOmhyZWY9IiNEZWphVnVTYW5zLTMwIi8+JiN4YTsgICAgIDx1c2UgeD0iNjMuNjIzMDQ3IiB4bGluazpocmVmPSIjRGVqYVZ1U2Fucy0yZSIvPiYjeGE7ICAgICA8dXNlIHg9Ijk1LjQxMDE1NiIgeGxpbms6aHJlZj0iI0RlamFWdVNhbnMtMzAiLz4mI3hhOyAgICAgPHVzZSB4PSIxNTkuMDMzMjAzIiB4bGluazpocmVmPSIjRGVqYVZ1U2Fucy0zNiIvPiYjeGE7ICAgICA8dXNlIHg9IjIyMi42NTYyNSIgeGxpbms6aHJlZj0iI0RlamFWdVNhbnMtMzgiLz4mI3hhOyAgICA8L2c+JiN4YTsgICA8L2c+JiN4YTsgICA8ZyBpZD0idGV4dF8xNiI+JiN4YTsgICAgJiN4YTsgICAgPGcgdHJhbnNmb3JtPSJ0cmFuc2xhdGUoMTE0LjEwMDc1IDMzLjA5KSBzY2FsZSgwLjA4IC0wLjA4KSIgc3R5bGU9ImZpbGw6ICNmZmZmZmYiPiYjeGE7ICAgICA8dXNlIHhsaW5rOmhyZWY9IiNEZWphVnVTYW5zLTMwIi8+JiN4YTsgICAgIDx1c2UgeD0iNjMuNjIzMDQ3IiB4bGluazpocmVmPSIjRGVqYVZ1U2Fucy0yZSIvPiYjeGE7ICAgICA8dXNlIHg9Ijk1LjQxMDE1NiIgeGxpbms6aHJlZj0iI0RlamFWdVNhbnMtMzAiLz4mI3hhOyAgICAgPHVzZSB4PSIxNTkuMDMzMjAzIiB4bGluazpocmVmPSIjRGVqYVZ1U2Fucy0zNyIvPiYjeGE7ICAgICA8dXNlIHg9IjIyMi42NTYyNSIgeGxpbms6aHJlZj0iI0RlamFWdVNhbnMtMzEiLz4mI3hhOyAgICA8L2c+JiN4YTsgICA8L2c+JiN4YTsgICA8ZyBpZD0idGV4dF8xNyI+JiN4YTsgICAgJiN4YTsgICAgPGcgdHJhbnNmb3JtPSJ0cmFuc2xhdGUoMTc1LjM3NTQxNyAzMy4wOSkgc2NhbGUoMC4wOCAtMC4wOCkiIHN0eWxlPSJmaWxsOiAjZmZmZmZmIj4mI3hhOyAgICAgPGRlZnM+JiN4YTsgICAgICA8cGF0aCB0cmFuc2Zvcm09InNjYWxlKDAuMDE1NjI1KSIgZD0iTSA3MDMgOTcgJiMxMDtMIDcwMyA2NzIgJiMxMDtRIDk0MSA1NTkgMTE4NCA1MDAgJiMxMDtRIDE0MjggNDQxIDE2NjMgNDQxICYjMTA7USAyMjg4IDQ0MSAyNjE3IDg2MSAmIzEwO1EgMjk0NyAxMjgxIDI5OTQgMjEzOCAmIzEwO1EgMjgxMyAxODY5IDI1MzQgMTcyNSAmIzEwO1EgMjI1NiAxNTgxIDE5MTkgMTU4MSAmIzEwO1EgMTIxOSAxNTgxIDgxMSAyMDA0ICYjMTA7USA0MDMgMjQyOCA0MDMgMzE2MyAmIzEwO1EgNDAzIDM4ODEgODI4IDQzMTUgJiMxMDtRIDEyNTMgNDc1MCAxOTU5IDQ3NTAgJiMxMDtRIDI3NjkgNDc1MCAzMTk1IDQxMjkgJiMxMDtRIDM2MjIgMzUwOSAzNjIyIDIzMjggJiMxMDtRIDM2MjIgMTIyNSAzMDk4IDU2NyAmIzEwO1EgMjU3NSAtOTEgMTY5MSAtOTEgJiMxMDtRIDE0NTMgLTkxIDEyMDkgLTQ0ICYjMTA7USA5NjYgMyA3MDMgOTcgJiMxMDt6JiMxMDtNIDE5NTkgMjA3NSAmIzEwO1EgMjM4NCAyMDc1IDI2MzIgMjM2NSAmIzEwO1EgMjg4MSAyNjU2IDI4ODEgMzE2MyAmIzEwO1EgMjg4MSAzNjY2IDI2MzIgMzk1OCAmIzEwO1EgMjM4NCA0MjUwIDE5NTkgNDI1MCAmIzEwO1EgMTUzNCA0MjUwIDEyODYgMzk1OCAmIzEwO1EgMTAzOCAzNjY2IDEwMzggMzE2MyAmIzEwO1EgMTAzOCAyNjU2IDEyODYgMjM2NSAmIzEwO1EgMTUzNCAyMDc1IDE5NTkgMjA3NSAmIzEwO3oiIGlkPSJEZWphVnVTYW5zLTM5Ii8+JiN4YTsgICAgIDwvZGVmcz4mI3hhOyAgICAgPHVzZSB4bGluazpocmVmPSIjRGVqYVZ1U2Fucy0zMCIvPiYjeGE7ICAgICA8dXNlIHg9IjYzLjYyMzA0NyIgeGxpbms6aHJlZj0iI0RlamFWdVNhbnMtMmUiLz4mI3hhOyAgICAgPHVzZSB4PSI5NS40MTAxNTYiIHhsaW5rOmhyZWY9IiNEZWphVnVTYW5zLTMwIi8+JiN4YTsgICAgIDx1c2UgeD0iMTU5LjAzMzIwMyIgeGxpbms6aHJlZj0iI0RlamFWdVNhbnMtMzYiLz4mI3hhOyAgICAgPHVzZSB4PSIyMjIuNjU2MjUiIHhsaW5rOmhyZWY9IiNEZWphVnVTYW5zLTM5Ii8+JiN4YTsgICAgPC9nPiYjeGE7ICAgPC9nPiYjeGE7ICAgPGcgaWQ9InRleHRfMTgiPiYjeGE7ICAgICYjeGE7ICAgIDxnIHRyYW5zZm9ybT0idHJhbnNsYXRlKDIzNi42NTAwODMgMzMuMDkpIHNjYWxlKDAuMDggLTAuMDgpIiBzdHlsZT0iZmlsbDogI2ZmZmZmZiI+JiN4YTsgICAgIDx1c2UgeGxpbms6aHJlZj0iI0RlamFWdVNhbnMtMzAiLz4mI3hhOyAgICAgPHVzZSB4PSI2My42MjMwNDciIHhsaW5rOmhyZWY9IiNEZWphVnVTYW5zLTJlIi8+JiN4YTsgICAgIDx1c2UgeD0iOTUuNDEwMTU2IiB4bGluazpocmVmPSIjRGVqYVZ1U2Fucy0zMCIvPiYjeGE7ICAgICA8dXNlIHg9IjE1OS4wMzMyMDMiIHhsaW5rOmhyZWY9IiNEZWphVnVTYW5zLTM3Ii8+JiN4YTsgICAgIDx1c2UgeD0iMjIyLjY1NjI1IiB4bGluazpocmVmPSIjRGVqYVZ1U2Fucy0zNCIvPiYjeGE7ICAgIDwvZz4mI3hhOyAgIDwvZz4mI3hhOyAgIDxnIGlkPSJ0ZXh0XzE5Ij4mI3hhOyAgICAmI3hhOyAgICA8ZyB0cmFuc2Zvcm09InRyYW5zbGF0ZSgyOTcuOTI0NzUgMzMuMDkpIHNjYWxlKDAuMDggLTAuMDgpIiBzdHlsZT0iZmlsbDogI2ZmZmZmZiI+JiN4YTsgICAgIDx1c2UgeGxpbms6aHJlZj0iI0RlamFWdVNhbnMtMzAiLz4mI3hhOyAgICAgPHVzZSB4PSI2My42MjMwNDciIHhsaW5rOmhyZWY9IiNEZWphVnVTYW5zLTJlIi8+JiN4YTsgICAgIDx1c2UgeD0iOTUuNDEwMTU2IiB4bGluazpocmVmPSIjRGVqYVZ1U2Fucy0zMCIvPiYjeGE7ICAgICA8dXNlIHg9IjE1OS4wMzMyMDMiIHhsaW5rOmhyZWY9IiNEZWphVnVTYW5zLTM2Ii8+JiN4YTsgICAgIDx1c2UgeD0iMjIyLjY1NjI1IiB4bGluazpocmVmPSIjRGVqYVZ1U2Fucy0zNSIvPiYjeGE7ICAgIDwvZz4mI3hhOyAgIDwvZz4mI3hhOyAgIDxnIGlkPSJ0ZXh0XzIwIj4mI3hhOyAgICAmI3hhOyAgICA8ZyB0cmFuc2Zvcm09InRyYW5zbGF0ZSgzNTkuMTk5NDE3IDMzLjA5KSBzY2FsZSgwLjA4IC0wLjA4KSIgc3R5bGU9ImZpbGw6ICNmZmZmZmYiPiYjeGE7ICAgICA8dXNlIHhsaW5rOmhyZWY9IiNEZWphVnVTYW5zLTMwIi8+JiN4YTsgICAgIDx1c2UgeD0iNjMuNjIzMDQ3IiB4bGluazpocmVmPSIjRGVqYVZ1U2Fucy0yZSIvPiYjeGE7ICAgICA8dXNlIHg9Ijk1LjQxMDE1NiIgeGxpbms6aHJlZj0iI0RlamFWdVNhbnMtMzAiLz4mI3hhOyAgICAgPHVzZSB4PSIxNTkuMDMzMjAzIiB4bGluazpocmVmPSIjRGVqYVZ1U2Fucy0zNyIvPiYjeGE7ICAgICA8dXNlIHg9IjIyMi42NTYyNSIgeGxpbms6aHJlZj0iI0RlamFWdVNhbnMtMzQiLz4mI3hhOyAgICA8L2c+JiN4YTsgICA8L2c+JiN4YTsgICA8ZyBpZD0idGV4dF8yMSI+JiN4YTsgICAgJiN4YTsgICAgPGcgdHJhbnNmb3JtPSJ0cmFuc2xhdGUoNTIuODI2MDgzIDczLjI1NSkgc2NhbGUoMC4wOCAtMC4wOCkiIHN0eWxlPSJmaWxsOiAjZmZmZmZmIj4mI3hhOyAgICAgPHVzZSB4bGluazpocmVmPSIjRGVqYVZ1U2Fucy0zMCIvPiYjeGE7ICAgICA8dXNlIHg9IjYzLjYyMzA0NyIgeGxpbms6aHJlZj0iI0RlamFWdVNhbnMtMmUiLz4mI3hhOyAgICAgPHVzZSB4PSI5NS40MTAxNTYiIHhsaW5rOmhyZWY9IiNEZWphVnVTYW5zLTMwIi8+JiN4YTsgICAgIDx1c2UgeD0iMTU5LjAzMzIwMyIgeGxpbms6aHJlZj0iI0RlamFWdVNhbnMtMzYiLz4mI3hhOyAgICAgPHVzZSB4PSIyMjIuNjU2MjUiIHhsaW5rOmhyZWY9IiNEZWphVnVTYW5zLTM5Ii8+JiN4YTsgICAgPC9nPiYjeGE7ICAgPC9nPiYjeGE7ICAgPGcgaWQ9InRleHRfMjIiPiYjeGE7ICAgICYjeGE7ICAgIDxnIHRyYW5zZm9ybT0idHJhbnNsYXRlKDExNC4xMDA3NSA3My4yNTUpIHNjYWxlKDAuMDggLTAuMDgpIiBzdHlsZT0iZmlsbDogI2ZmZmZmZiI+JiN4YTsgICAgIDx1c2UgeGxpbms6aHJlZj0iI0RlamFWdVNhbnMtMzAiLz4mI3hhOyAgICAgPHVzZSB4PSI2My42MjMwNDciIHhsaW5rOmhyZWY9IiNEZWphVnVTYW5zLTJlIi8+JiN4YTsgICAgIDx1c2UgeD0iOTUuNDEwMTU2IiB4bGluazpocmVmPSIjRGVqYVZ1U2Fucy0zMCIvPiYjeGE7ICAgICA8dXNlIHg9IjE1OS4wMzMyMDMiIHhsaW5rOmhyZWY9IiNEZWphVnVTYW5zLTM3Ii8+JiN4YTsgICAgIDx1c2UgeD0iMjIyLjY1NjI1IiB4bGluazpocmVmPSIjRGVqYVZ1U2Fucy0zMyIvPiYjeGE7ICAgIDwvZz4mI3hhOyAgIDwvZz4mI3hhOyAgIDxnIGlkPSJ0ZXh0XzIzIj4mI3hhOyAgICAmI3hhOyAgICA8ZyB0cmFuc2Zvcm09InRyYW5zbGF0ZSgxNzUuMzc1NDE3IDczLjI1NSkgc2NhbGUoMC4wOCAtMC4wOCkiIHN0eWxlPSJmaWxsOiAjZmZmZmZmIj4mI3hhOyAgICAgPHVzZSB4bGluazpocmVmPSIjRGVqYVZ1U2Fucy0zMCIvPiYjeGE7ICAgICA8dXNlIHg9IjYzLjYyMzA0NyIgeGxpbms6aHJlZj0iI0RlamFWdVNhbnMtMmUiLz4mI3hhOyAgICAgPHVzZSB4PSI5NS40MTAxNTYiIHhsaW5rOmhyZWY9IiNEZWphVnVTYW5zLTMwIi8+JiN4YTsgICAgIDx1c2UgeD0iMTU5LjAzMzIwMyIgeGxpbms6aHJlZj0iI0RlamFWdVNhbnMtMzciLz4mI3hhOyAgICAgPHVzZSB4PSIyMjIuNjU2MjUiIHhsaW5rOmhyZWY9IiNEZWphVnVTYW5zLTMyIi8+JiN4YTsgICAgPC9nPiYjeGE7ICAgPC9nPiYjeGE7ICAgPGcgaWQ9InRleHRfMjQiPiYjeGE7ICAgICYjeGE7ICAgIDxnIHRyYW5zZm9ybT0idHJhbnNsYXRlKDIzNi42NTAwODMgNzMuMjU1KSBzY2FsZSgwLjA4IC0wLjA4KSIgc3R5bGU9ImZpbGw6ICNmZmZmZmYiPiYjeGE7ICAgICA8dXNlIHhsaW5rOmhyZWY9IiNEZWphVnVTYW5zLTMwIi8+JiN4YTsgICAgIDx1c2UgeD0iNjMuNjIzMDQ3IiB4bGluazpocmVmPSIjRGVqYVZ1U2Fucy0yZSIvPiYjeGE7ICAgICA8dXNlIHg9Ijk1LjQxMDE1NiIgeGxpbms6aHJlZj0iI0RlamFWdVNhbnMtMzAiLz4mI3hhOyAgICAgPHVzZSB4PSIxNTkuMDMzMjAzIiB4bGluazpocmVmPSIjRGVqYVZ1U2Fucy0zNyIvPiYjeGE7ICAgICA8dXNlIHg9IjIyMi42NTYyNSIgeGxpbms6aHJlZj0iI0RlamFWdVNhbnMtMzUiLz4mI3hhOyAgICA8L2c+JiN4YTsgICA8L2c+JiN4YTsgICA8ZyBpZD0idGV4dF8yNSI+JiN4YTsgICAgJiN4YTsgICAgPGcgdHJhbnNmb3JtPSJ0cmFuc2xhdGUoMjk3LjkyNDc1IDczLjI1NSkgc2NhbGUoMC4wOCAtMC4wOCkiIHN0eWxlPSJmaWxsOiAjZmZmZmZmIj4mI3hhOyAgICAgPHVzZSB4bGluazpocmVmPSIjRGVqYVZ1U2Fucy0zMCIvPiYjeGE7ICAgICA8dXNlIHg9IjYzLjYyMzA0NyIgeGxpbms6aHJlZj0iI0RlamFWdVNhbnMtMmUiLz4mI3hhOyAgICAgPHVzZSB4PSI5NS40MTAxNTYiIHhsaW5rOmhyZWY9IiNEZWphVnVTYW5zLTMwIi8+JiN4YTsgICAgIDx1c2UgeD0iMTU5LjAzMzIwMyIgeGxpbms6aHJlZj0iI0RlamFWdVNhbnMtMzciLz4mI3hhOyAgICAgPHVzZSB4PSIyMjIuNjU2MjUiIHhsaW5rOmhyZWY9IiNEZWphVnVTYW5zLTM0Ii8+JiN4YTsgICAgPC9nPiYjeGE7ICAgPC9nPiYjeGE7ICAgPGcgaWQ9InRleHRfMjYiPiYjeGE7ICAgICYjeGE7ICAgIDxnIHRyYW5zZm9ybT0idHJhbnNsYXRlKDM1OS4xOTk0MTcgNzMuMjU1KSBzY2FsZSgwLjA4IC0wLjA4KSIgc3R5bGU9ImZpbGw6ICNmZmZmZmYiPiYjeGE7ICAgICA8dXNlIHhsaW5rOmhyZWY9IiNEZWphVnVTYW5zLTMwIi8+JiN4YTsgICAgIDx1c2UgeD0iNjMuNjIzMDQ3IiB4bGluazpocmVmPSIjRGVqYVZ1U2Fucy0yZSIvPiYjeGE7ICAgICA8dXNlIHg9Ijk1LjQxMDE1NiIgeGxpbms6aHJlZj0iI0RlamFWdVNhbnMtMzAiLz4mI3hhOyAgICAgPHVzZSB4PSIxNTkuMDMzMjAzIiB4bGluazpocmVmPSIjRGVqYVZ1U2Fucy0zNSIvPiYjeGE7ICAgICA8dXNlIHg9IjIyMi42NTYyNSIgeGxpbms6aHJlZj0iI0RlamFWdVNhbnMtMzkiLz4mI3hhOyAgICA8L2c+JiN4YTsgICA8L2c+JiN4YTsgICA8ZyBpZD0idGV4dF8yNyI+JiN4YTsgICAgJiN4YTsgICAgPGcgdHJhbnNmb3JtPSJ0cmFuc2xhdGUoNTIuODI2MDgzIDExMy40Mikgc2NhbGUoMC4wOCAtMC4wOCkiIHN0eWxlPSJmaWxsOiAjZmZmZmZmIj4mI3hhOyAgICAgPHVzZSB4bGluazpocmVmPSIjRGVqYVZ1U2Fucy0zMCIvPiYjeGE7ICAgICA8dXNlIHg9IjYzLjYyMzA0NyIgeGxpbms6aHJlZj0iI0RlamFWdVNhbnMtMmUiLz4mI3hhOyAgICAgPHVzZSB4PSI5NS40MTAxNTYiIHhsaW5rOmhyZWY9IiNEZWphVnVTYW5zLTMwIi8+JiN4YTsgICAgIDx1c2UgeD0iMTU5LjAzMzIwMyIgeGxpbms6aHJlZj0iI0RlamFWdVNhbnMtMzYiLz4mI3hhOyAgICAgPHVzZSB4PSIyMjIuNjU2MjUiIHhsaW5rOmhyZWY9IiNEZWphVnVTYW5zLTM5Ii8+JiN4YTsgICAgPC9nPiYjeGE7ICAgPC9nPiYjeGE7ICAgPGcgaWQ9InRleHRfMjgiPiYjeGE7ICAgICYjeGE7ICAgIDxnIHRyYW5zZm9ybT0idHJhbnNsYXRlKDExNC4xMDA3NSAxMTMuNDIpIHNjYWxlKDAuMDggLTAuMDgpIiBzdHlsZT0iZmlsbDogI2ZmZmZmZiI+JiN4YTsgICAgIDx1c2UgeGxpbms6aHJlZj0iI0RlamFWdVNhbnMtMzAiLz4mI3hhOyAgICAgPHVzZSB4PSI2My42MjMwNDciIHhsaW5rOmhyZWY9IiNEZWphVnVTYW5zLTJlIi8+JiN4YTsgICAgIDx1c2UgeD0iOTUuNDEwMTU2IiB4bGluazpocmVmPSIjRGVqYVZ1U2Fucy0zMCIvPiYjeGE7ICAgICA8dXNlIHg9IjE1OS4wMzMyMDMiIHhsaW5rOmhyZWY9IiNEZWphVnVTYW5zLTM3Ii8+JiN4YTsgICAgIDx1c2UgeD0iMjIyLjY1NjI1IiB4bGluazpocmVmPSIjRGVqYVZ1U2Fucy0zMyIvPiYjeGE7ICAgIDwvZz4mI3hhOyAgIDwvZz4mI3hhOyAgIDxnIGlkPSJ0ZXh0XzI5Ij4mI3hhOyAgICAmI3hhOyAgICA8ZyB0cmFuc2Zvcm09InRyYW5zbGF0ZSgxNzUuMzc1NDE3IDExMy40Mikgc2NhbGUoMC4wOCAtMC4wOCkiIHN0eWxlPSJmaWxsOiAjZmZmZmZmIj4mI3hhOyAgICAgPHVzZSB4bGluazpocmVmPSIjRGVqYVZ1U2Fucy0zMCIvPiYjeGE7ICAgICA8dXNlIHg9IjYzLjYyMzA0NyIgeGxpbms6aHJlZj0iI0RlamFWdVNhbnMtMmUiLz4mI3hhOyAgICAgPHVzZSB4PSI5NS40MTAxNTYiIHhsaW5rOmhyZWY9IiNEZWphVnVTYW5zLTMwIi8+JiN4YTsgICAgIDx1c2UgeD0iMTU5LjAzMzIwMyIgeGxpbms6aHJlZj0iI0RlamFWdVNhbnMtMzciLz4mI3hhOyAgICAgPHVzZSB4PSIyMjIuNjU2MjUiIHhsaW5rOmhyZWY9IiNEZWphVnVTYW5zLTMzIi8+JiN4YTsgICAgPC9nPiYjeGE7ICAgPC9nPiYjeGE7ICAgPGcgaWQ9InRleHRfMzAiPiYjeGE7ICAgICYjeGE7ICAgIDxnIHRyYW5zZm9ybT0idHJhbnNsYXRlKDIzNi42NTAwODMgMTEzLjQyKSBzY2FsZSgwLjA4IC0wLjA4KSIgc3R5bGU9ImZpbGw6ICNmZmZmZmYiPiYjeGE7ICAgICA8dXNlIHhsaW5rOmhyZWY9IiNEZWphVnVTYW5zLTMwIi8+JiN4YTsgICAgIDx1c2UgeD0iNjMuNjIzMDQ3IiB4bGluazpocmVmPSIjRGVqYVZ1U2Fucy0yZSIvPiYjeGE7ICAgICA8dXNlIHg9Ijk1LjQxMDE1NiIgeGxpbms6aHJlZj0iI0RlamFWdVNhbnMtMzAiLz4mI3hhOyAgICAgPHVzZSB4PSIxNTkuMDMzMjAzIiB4bGluazpocmVmPSIjRGVqYVZ1U2Fucy0zNiIvPiYjeGE7ICAgICA8dXNlIHg9IjIyMi42NTYyNSIgeGxpbms6aHJlZj0iI0RlamFWdVNhbnMtMzciLz4mI3hhOyAgICA8L2c+JiN4YTsgICA8L2c+JiN4YTsgICA8ZyBpZD0idGV4dF8zMSI+JiN4YTsgICAgJiN4YTsgICAgPGcgdHJhbnNmb3JtPSJ0cmFuc2xhdGUoMjk3LjkyNDc1IDExMy40Mikgc2NhbGUoMC4wOCAtMC4wOCkiIHN0eWxlPSJmaWxsOiAjZmZmZmZmIj4mI3hhOyAgICAgPHVzZSB4bGluazpocmVmPSIjRGVqYVZ1U2Fucy0zMCIvPiYjeGE7ICAgICA8dXNlIHg9IjYzLjYyMzA0NyIgeGxpbms6aHJlZj0iI0RlamFWdVNhbnMtMmUiLz4mI3hhOyAgICAgPHVzZSB4PSI5NS40MTAxNTYiIHhsaW5rOmhyZWY9IiNEZWphVnVTYW5zLTMwIi8+JiN4YTsgICAgIDx1c2UgeD0iMTU5LjAzMzIwMyIgeGxpbms6aHJlZj0iI0RlamFWdVNhbnMtMzciLz4mI3hhOyAgICAgPHVzZSB4PSIyMjIuNjU2MjUiIHhsaW5rOmhyZWY9IiNEZWphVnVTYW5zLTM1Ii8+JiN4YTsgICAgPC9nPiYjeGE7ICAgPC9nPiYjeGE7ICAgPGcgaWQ9InRleHRfMzIiPiYjeGE7ICAgICYjeGE7ICAgIDxnIHRyYW5zZm9ybT0idHJhbnNsYXRlKDM1OS4xOTk0MTcgMTEzLjQyKSBzY2FsZSgwLjA4IC0wLjA4KSIgc3R5bGU9ImZpbGw6ICNmZmZmZmYiPiYjeGE7ICAgICA8dXNlIHhsaW5rOmhyZWY9IiNEZWphVnVTYW5zLTMwIi8+JiN4YTsgICAgIDx1c2UgeD0iNjMuNjIzMDQ3IiB4bGluazpocmVmPSIjRGVqYVZ1U2Fucy0yZSIvPiYjeGE7ICAgICA8dXNlIHg9Ijk1LjQxMDE1NiIgeGxpbms6aHJlZj0iI0RlamFWdVNhbnMtMzAiLz4mI3hhOyAgICAgPHVzZSB4PSIxNTkuMDMzMjAzIiB4bGluazpocmVmPSIjRGVqYVZ1U2Fucy0zNyIvPiYjeGE7ICAgICA8dXNlIHg9IjIyMi42NTYyNSIgeGxpbms6aHJlZj0iI0RlamFWdVNhbnMtMzMiLz4mI3hhOyAgICA8L2c+JiN4YTsgICA8L2c+JiN4YTsgICA8ZyBpZD0idGV4dF8zMyI+JiN4YTsgICAgJiN4YTsgICAgPGcgdHJhbnNmb3JtPSJ0cmFuc2xhdGUoNTIuODI2MDgzIDE1My41ODUpIHNjYWxlKDAuMDggLTAuMDgpIiBzdHlsZT0iZmlsbDogI2ZmZmZmZiI+JiN4YTsgICAgIDx1c2UgeGxpbms6aHJlZj0iI0RlamFWdVNhbnMtMzAiLz4mI3hhOyAgICAgPHVzZSB4PSI2My42MjMwNDciIHhsaW5rOmhyZWY9IiNEZWphVnVTYW5zLTJlIi8+JiN4YTsgICAgIDx1c2UgeD0iOTUuNDEwMTU2IiB4bGluazpocmVmPSIjRGVqYVZ1U2Fucy0zMCIvPiYjeGE7ICAgICA8dXNlIHg9IjE1OS4wMzMyMDMiIHhsaW5rOmhyZWY9IiNEZWphVnVTYW5zLTM2Ii8+JiN4YTsgICAgIDx1c2UgeD0iMjIyLjY1NjI1IiB4bGluazpocmVmPSIjRGVqYVZ1U2Fucy0zNyIvPiYjeGE7ICAgIDwvZz4mI3hhOyAgIDwvZz4mI3hhOyAgIDxnIGlkPSJ0ZXh0XzM0Ij4mI3hhOyAgICAmI3hhOyAgICA8ZyB0cmFuc2Zvcm09InRyYW5zbGF0ZSgxMTQuMTAwNzUgMTUzLjU4NSkgc2NhbGUoMC4wOCAtMC4wOCkiIHN0eWxlPSJmaWxsOiAjZmZmZmZmIj4mI3hhOyAgICAgPHVzZSB4bGluazpocmVmPSIjRGVqYVZ1U2Fucy0zMCIvPiYjeGE7ICAgICA8dXNlIHg9IjYzLjYyMzA0NyIgeGxpbms6aHJlZj0iI0RlamFWdVNhbnMtMmUiLz4mI3hhOyAgICAgPHVzZSB4PSI5NS40MTAxNTYiIHhsaW5rOmhyZWY9IiNEZWphVnVTYW5zLTMwIi8+JiN4YTsgICAgIDx1c2UgeD0iMTU5LjAzMzIwMyIgeGxpbms6aHJlZj0iI0RlamFWdVNhbnMtMzciLz4mI3hhOyAgICAgPHVzZSB4PSIyMjIuNjU2MjUiIHhsaW5rOmhyZWY9IiNEZWphVnVTYW5zLTMxIi8+JiN4YTsgICAgPC9nPiYjeGE7ICAgPC9nPiYjeGE7ICAgPGcgaWQ9InRleHRfMzUiPiYjeGE7ICAgICYjeGE7ICAgIDxnIHRyYW5zZm9ybT0idHJhbnNsYXRlKDE3NS4zNzU0MTcgMTUzLjU4NSkgc2NhbGUoMC4wOCAtMC4wOCkiIHN0eWxlPSJmaWxsOiAjZmZmZmZmIj4mI3hhOyAgICAgPHVzZSB4bGluazpocmVmPSIjRGVqYVZ1U2Fucy0zMCIvPiYjeGE7ICAgICA8dXNlIHg9IjYzLjYyMzA0NyIgeGxpbms6aHJlZj0iI0RlamFWdVNhbnMtMmUiLz4mI3hhOyAgICAgPHVzZSB4PSI5NS40MTAxNTYiIHhsaW5rOmhyZWY9IiNEZWphVnVTYW5zLTMwIi8+JiN4YTsgICAgIDx1c2UgeD0iMTU5LjAzMzIwMyIgeGxpbms6aHJlZj0iI0RlamFWdVNhbnMtMzciLz4mI3hhOyAgICAgPHVzZSB4PSIyMjIuNjU2MjUiIHhsaW5rOmhyZWY9IiNEZWphVnVTYW5zLTMyIi8+JiN4YTsgICAgPC9nPiYjeGE7ICAgPC9nPiYjeGE7ICAgPGcgaWQ9InRleHRfMzYiPiYjeGE7ICAgICYjeGE7ICAgIDxnIHRyYW5zZm9ybT0idHJhbnNsYXRlKDIzNi42NTAwODMgMTUzLjU4NSkgc2NhbGUoMC4wOCAtMC4wOCkiIHN0eWxlPSJmaWxsOiAjZmZmZmZmIj4mI3hhOyAgICAgPHVzZSB4bGluazpocmVmPSIjRGVqYVZ1U2Fucy0zMCIvPiYjeGE7ICAgICA8dXNlIHg9IjYzLjYyMzA0NyIgeGxpbms6aHJlZj0iI0RlamFWdVNhbnMtMmUiLz4mI3hhOyAgICAgPHVzZSB4PSI5NS40MTAxNTYiIHhsaW5rOmhyZWY9IiNEZWphVnVTYW5zLTMwIi8+JiN4YTsgICAgIDx1c2UgeD0iMTU5LjAzMzIwMyIgeGxpbms6aHJlZj0iI0RlamFWdVNhbnMtMzciLz4mI3hhOyAgICAgPHVzZSB4PSIyMjIuNjU2MjUiIHhsaW5rOmhyZWY9IiNEZWphVnVTYW5zLTM0Ii8+JiN4YTsgICAgPC9nPiYjeGE7ICAgPC9nPiYjeGE7ICAgPGcgaWQ9InRleHRfMzciPiYjeGE7ICAgICYjeGE7ICAgIDxnIHRyYW5zZm9ybT0idHJhbnNsYXRlKDI5Ny45MjQ3NSAxNTMuNTg1KSBzY2FsZSgwLjA4IC0wLjA4KSIgc3R5bGU9ImZpbGw6ICNmZmZmZmYiPiYjeGE7ICAgICA8dXNlIHhsaW5rOmhyZWY9IiNEZWphVnVTYW5zLTMwIi8+JiN4YTsgICAgIDx1c2UgeD0iNjMuNjIzMDQ3IiB4bGluazpocmVmPSIjRGVqYVZ1U2Fucy0yZSIvPiYjeGE7ICAgICA8dXNlIHg9Ijk1LjQxMDE1NiIgeGxpbms6aHJlZj0iI0RlamFWdVNhbnMtMzAiLz4mI3hhOyAgICAgPHVzZSB4PSIxNTkuMDMzMjAzIiB4bGluazpocmVmPSIjRGVqYVZ1U2Fucy0zNiIvPiYjeGE7ICAgICA8dXNlIHg9IjIyMi42NTYyNSIgeGxpbms6aHJlZj0iI0RlamFWdVNhbnMtMzQiLz4mI3hhOyAgICA8L2c+JiN4YTsgICA8L2c+JiN4YTsgICA8ZyBpZD0idGV4dF8zOCI+JiN4YTsgICAgJiN4YTsgICAgPGcgdHJhbnNmb3JtPSJ0cmFuc2xhdGUoMzU5LjE5OTQxNyAxNTMuNTg1KSBzY2FsZSgwLjA4IC0wLjA4KSIgc3R5bGU9ImZpbGw6ICNmZmZmZmYiPiYjeGE7ICAgICA8dXNlIHhsaW5rOmhyZWY9IiNEZWphVnVTYW5zLTMwIi8+JiN4YTsgICAgIDx1c2UgeD0iNjMuNjIzMDQ3IiB4bGluazpocmVmPSIjRGVqYVZ1U2Fucy0yZSIvPiYjeGE7ICAgICA8dXNlIHg9Ijk1LjQxMDE1NiIgeGxpbms6aHJlZj0iI0RlamFWdVNhbnMtMzAiLz4mI3hhOyAgICAgPHVzZSB4PSIxNTkuMDMzMjAzIiB4bGluazpocmVmPSIjRGVqYVZ1U2Fucy0zNyIvPiYjeGE7ICAgICA8dXNlIHg9IjIyMi42NTYyNSIgeGxpbms6aHJlZj0iI0RlamFWdVNhbnMtMzMiLz4mI3hhOyAgICA8L2c+JiN4YTsgICA8L2c+JiN4YTsgICA8ZyBpZD0idGV4dF8zOSI+JiN4YTsgICAgJiN4YTsgICAgPGcgdHJhbnNmb3JtPSJ0cmFuc2xhdGUoNTIuODI2MDgzIDE5My43NSkgc2NhbGUoMC4wOCAtMC4wOCkiIHN0eWxlPSJmaWxsOiAjZmZmZmZmIj4mI3hhOyAgICAgPHVzZSB4bGluazpocmVmPSIjRGVqYVZ1U2Fucy0zMCIvPiYjeGE7ICAgICA8dXNlIHg9IjYzLjYyMzA0NyIgeGxpbms6aHJlZj0iI0RlamFWdVNhbnMtMmUiLz4mI3hhOyAgICAgPHVzZSB4PSI5NS40MTAxNTYiIHhsaW5rOmhyZWY9IiNEZWphVnVTYW5zLTMwIi8+JiN4YTsgICAgIDx1c2UgeD0iMTU5LjAzMzIwMyIgeGxpbms6aHJlZj0iI0RlamFWdVNhbnMtMzYiLz4mI3hhOyAgICAgPHVzZSB4PSIyMjIuNjU2MjUiIHhsaW5rOmhyZWY9IiNEZWphVnVTYW5zLTM5Ii8+JiN4YTsgICAgPC9nPiYjeGE7ICAgPC9nPiYjeGE7ICAgPGcgaWQ9InRleHRfNDAiPiYjeGE7ICAgICYjeGE7ICAgIDxnIHRyYW5zZm9ybT0idHJhbnNsYXRlKDExNC4xMDA3NSAxOTMuNzUpIHNjYWxlKDAuMDggLTAuMDgpIiBzdHlsZT0iZmlsbDogI2ZmZmZmZiI+JiN4YTsgICAgIDx1c2UgeGxpbms6aHJlZj0iI0RlamFWdVNhbnMtMzAiLz4mI3hhOyAgICAgPHVzZSB4PSI2My42MjMwNDciIHhsaW5rOmhyZWY9IiNEZWphVnVTYW5zLTJlIi8+JiN4YTsgICAgIDx1c2UgeD0iOTUuNDEwMTU2IiB4bGluazpocmVmPSIjRGVqYVZ1U2Fucy0zMCIvPiYjeGE7ICAgICA8dXNlIHg9IjE1OS4wMzMyMDMiIHhsaW5rOmhyZWY9IiNEZWphVnVTYW5zLTM3Ii8+JiN4YTsgICAgIDx1c2UgeD0iMjIyLjY1NjI1IiB4bGluazpocmVmPSIjRGVqYVZ1U2Fucy0zMSIvPiYjeGE7ICAgIDwvZz4mI3hhOyAgIDwvZz4mI3hhOyAgIDxnIGlkPSJ0ZXh0XzQxIj4mI3hhOyAgICAmI3hhOyAgICA8ZyB0cmFuc2Zvcm09InRyYW5zbGF0ZSgxNzUuMzc1NDE3IDE5My43NSkgc2NhbGUoMC4wOCAtMC4wOCkiIHN0eWxlPSJmaWxsOiAjZmZmZmZmIj4mI3hhOyAgICAgPHVzZSB4bGluazpocmVmPSIjRGVqYVZ1U2Fucy0zMCIvPiYjeGE7ICAgICA8dXNlIHg9IjYzLjYyMzA0NyIgeGxpbms6aHJlZj0iI0RlamFWdVNhbnMtMmUiLz4mI3hhOyAgICAgPHVzZSB4PSI5NS40MTAxNTYiIHhsaW5rOmhyZWY9IiNEZWphVnVTYW5zLTMwIi8+JiN4YTsgICAgIDx1c2UgeD0iMTU5LjAzMzIwMyIgeGxpbms6aHJlZj0iI0RlamFWdVNhbnMtMzciLz4mI3hhOyAgICAgPHVzZSB4PSIyMjIuNjU2MjUiIHhsaW5rOmhyZWY9IiNEZWphVnVTYW5zLTMzIi8+JiN4YTsgICAgPC9nPiYjeGE7ICAgPC9nPiYjeGE7ICAgPGcgaWQ9InRleHRfNDIiPiYjeGE7ICAgICYjeGE7ICAgIDxnIHRyYW5zZm9ybT0idHJhbnNsYXRlKDIzNi42NTAwODMgMTkzLjc1KSBzY2FsZSgwLjA4IC0wLjA4KSIgc3R5bGU9ImZpbGw6ICNmZmZmZmYiPiYjeGE7ICAgICA8dXNlIHhsaW5rOmhyZWY9IiNEZWphVnVTYW5zLTMwIi8+JiN4YTsgICAgIDx1c2UgeD0iNjMuNjIzMDQ3IiB4bGluazpocmVmPSIjRGVqYVZ1U2Fucy0yZSIvPiYjeGE7ICAgICA8dXNlIHg9Ijk1LjQxMDE1NiIgeGxpbms6aHJlZj0iI0RlamFWdVNhbnMtMzAiLz4mI3hhOyAgICAgPHVzZSB4PSIxNTkuMDMzMjAzIiB4bGluazpocmVmPSIjRGVqYVZ1U2Fucy0zNyIvPiYjeGE7ICAgICA8dXNlIHg9IjIyMi42NTYyNSIgeGxpbms6aHJlZj0iI0RlamFWdVNhbnMtMzQiLz4mI3hhOyAgICA8L2c+JiN4YTsgICA8L2c+JiN4YTsgICA8ZyBpZD0idGV4dF80MyI+JiN4YTsgICAgJiN4YTsgICAgPGcgdHJhbnNmb3JtPSJ0cmFuc2xhdGUoMjk3LjkyNDc1IDE5My43NSkgc2NhbGUoMC4wOCAtMC4wOCkiIHN0eWxlPSJmaWxsOiAjZmZmZmZmIj4mI3hhOyAgICAgPHVzZSB4bGluazpocmVmPSIjRGVqYVZ1U2Fucy0zMCIvPiYjeGE7ICAgICA8dXNlIHg9IjYzLjYyMzA0NyIgeGxpbms6aHJlZj0iI0RlamFWdVNhbnMtMmUiLz4mI3hhOyAgICAgPHVzZSB4PSI5NS40MTAxNTYiIHhsaW5rOmhyZWY9IiNEZWphVnVTYW5zLTMwIi8+JiN4YTsgICAgIDx1c2UgeD0iMTU5LjAzMzIwMyIgeGxpbms6aHJlZj0iI0RlamFWdVNhbnMtMzYiLz4mI3hhOyAgICAgPHVzZSB4PSIyMjIuNjU2MjUiIHhsaW5rOmhyZWY9IiNEZWphVnVTYW5zLTMyIi8+JiN4YTsgICAgPC9nPiYjeGE7ICAgPC9nPiYjeGE7ICAgPGcgaWQ9InRleHRfNDQiPiYjeGE7ICAgICYjeGE7ICAgIDxnIHRyYW5zZm9ybT0idHJhbnNsYXRlKDM1OS4xOTk0MTcgMTkzLjc1KSBzY2FsZSgwLjA4IC0wLjA4KSIgc3R5bGU9ImZpbGw6ICNmZmZmZmYiPiYjeGE7ICAgICA8dXNlIHhsaW5rOmhyZWY9IiNEZWphVnVTYW5zLTMwIi8+JiN4YTsgICAgIDx1c2UgeD0iNjMuNjIzMDQ3IiB4bGluazpocmVmPSIjRGVqYVZ1U2Fucy0yZSIvPiYjeGE7ICAgICA8dXNlIHg9Ijk1LjQxMDE1NiIgeGxpbms6aHJlZj0iI0RlamFWdVNhbnMtMzAiLz4mI3hhOyAgICAgPHVzZSB4PSIxNTkuMDMzMjAzIiB4bGluazpocmVmPSIjRGVqYVZ1U2Fucy0zNiIvPiYjeGE7ICAgICA8dXNlIHg9IjIyMi42NTYyNSIgeGxpbms6aHJlZj0iI0RlamFWdVNhbnMtMzEiLz4mI3hhOyAgICA8L2c+JiN4YTsgICA8L2c+JiN4YTsgICA8ZyBpZD0idGV4dF80NSI+JiN4YTsgICAgJiN4YTsgICAgPGcgdHJhbnNmb3JtPSJ0cmFuc2xhdGUoNTIuODI2MDgzIDIzMy45MTUpIHNjYWxlKDAuMDggLTAuMDgpIiBzdHlsZT0iZmlsbDogI2ZmZmZmZiI+JiN4YTsgICAgIDx1c2UgeGxpbms6aHJlZj0iI0RlamFWdVNhbnMtMzAiLz4mI3hhOyAgICAgPHVzZSB4PSI2My42MjMwNDciIHhsaW5rOmhyZWY9IiNEZWphVnVTYW5zLTJlIi8+JiN4YTsgICAgIDx1c2UgeD0iOTUuNDEwMTU2IiB4bGluazpocmVmPSIjRGVqYVZ1U2Fucy0zMCIvPiYjeGE7ICAgICA8dXNlIHg9IjE1OS4wMzMyMDMiIHhsaW5rOmhyZWY9IiNEZWphVnVTYW5zLTM2Ii8+JiN4YTsgICAgIDx1c2UgeD0iMjIyLjY1NjI1IiB4bGluazpocmVmPSIjRGVqYVZ1U2Fucy0zNyIvPiYjeGE7ICAgIDwvZz4mI3hhOyAgIDwvZz4mI3hhOyAgIDxnIGlkPSJ0ZXh0XzQ2Ij4mI3hhOyAgICAmI3hhOyAgICA8ZyB0cmFuc2Zvcm09InRyYW5zbGF0ZSgxMTQuMTAwNzUgMjMzLjkxNSkgc2NhbGUoMC4wOCAtMC4wOCkiIHN0eWxlPSJmaWxsOiAjZmZmZmZmIj4mI3hhOyAgICAgPHVzZSB4bGluazpocmVmPSIjRGVqYVZ1U2Fucy0zMCIvPiYjeGE7ICAgICA8dXNlIHg9IjYzLjYyMzA0NyIgeGxpbms6aHJlZj0iI0RlamFWdVNhbnMtMmUiLz4mI3hhOyAgICAgPHVzZSB4PSI5NS40MTAxNTYiIHhsaW5rOmhyZWY9IiNEZWphVnVTYW5zLTMwIi8+JiN4YTsgICAgIDx1c2UgeD0iMTU5LjAzMzIwMyIgeGxpbms6aHJlZj0iI0RlamFWdVNhbnMtMzciLz4mI3hhOyAgICAgPHVzZSB4PSIyMjIuNjU2MjUiIHhsaW5rOmhyZWY9IiNEZWphVnVTYW5zLTMzIi8+JiN4YTsgICAgPC9nPiYjeGE7ICAgPC9nPiYjeGE7ICAgPGcgaWQ9InRleHRfNDciPiYjeGE7ICAgICYjeGE7ICAgIDxnIHRyYW5zZm9ybT0idHJhbnNsYXRlKDE3NS4zNzU0MTcgMjMzLjkxNSkgc2NhbGUoMC4wOCAtMC4wOCkiIHN0eWxlPSJmaWxsOiAjZmZmZmZmIj4mI3hhOyAgICAgPHVzZSB4bGluazpocmVmPSIjRGVqYVZ1U2Fucy0zMCIvPiYjeGE7ICAgICA8dXNlIHg9IjYzLjYyMzA0NyIgeGxpbms6aHJlZj0iI0RlamFWdVNhbnMtMmUiLz4mI3hhOyAgICAgPHVzZSB4PSI5NS40MTAxNTYiIHhsaW5rOmhyZWY9IiNEZWphVnVTYW5zLTMwIi8+JiN4YTsgICAgIDx1c2UgeD0iMTU5LjAzMzIwMyIgeGxpbms6aHJlZj0iI0RlamFWdVNhbnMtMzciLz4mI3hhOyAgICAgPHVzZSB4PSIyMjIuNjU2MjUiIHhsaW5rOmhyZWY9IiNEZWphVnVTYW5zLTMzIi8+JiN4YTsgICAgPC9nPiYjeGE7ICAgPC9nPiYjeGE7ICAgPGcgaWQ9InRleHRfNDgiPiYjeGE7ICAgICYjeGE7ICAgIDxnIHRyYW5zZm9ybT0idHJhbnNsYXRlKDIzNi42NTAwODMgMjMzLjkxNSkgc2NhbGUoMC4wOCAtMC4wOCkiIHN0eWxlPSJmaWxsOiAjZmZmZmZmIj4mI3hhOyAgICAgPHVzZSB4bGluazpocmVmPSIjRGVqYVZ1U2Fucy0zMCIvPiYjeGE7ICAgICA8dXNlIHg9IjYzLjYyMzA0NyIgeGxpbms6aHJlZj0iI0RlamFWdVNhbnMtMmUiLz4mI3hhOyAgICAgPHVzZSB4PSI5NS40MTAxNTYiIHhsaW5rOmhyZWY9IiNEZWphVnVTYW5zLTMwIi8+JiN4YTsgICAgIDx1c2UgeD0iMTU5LjAzMzIwMyIgeGxpbms6aHJlZj0iI0RlamFWdVNhbnMtMzYiLz4mI3hhOyAgICAgPHVzZSB4PSIyMjIuNjU2MjUiIHhsaW5rOmhyZWY9IiNEZWphVnVTYW5zLTM4Ii8+JiN4YTsgICAgPC9nPiYjeGE7ICAgPC9nPiYjeGE7ICAgPGcgaWQ9InRleHRfNDkiPiYjeGE7ICAgICYjeGE7ICAgIDxnIHRyYW5zZm9ybT0idHJhbnNsYXRlKDI5Ny45MjQ3NSAyMzMuOTE1KSBzY2FsZSgwLjA4IC0wLjA4KSIgc3R5bGU9ImZpbGw6ICNmZmZmZmYiPiYjeGE7ICAgICA8dXNlIHhsaW5rOmhyZWY9IiNEZWphVnVTYW5zLTMwIi8+JiN4YTsgICAgIDx1c2UgeD0iNjMuNjIzMDQ3IiB4bGluazpocmVmPSIjRGVqYVZ1U2Fucy0yZSIvPiYjeGE7ICAgICA8dXNlIHg9Ijk1LjQxMDE1NiIgeGxpbms6aHJlZj0iI0RlamFWdVNhbnMtMzAiLz4mI3hhOyAgICAgPHVzZSB4PSIxNTkuMDMzMjAzIiB4bGluazpocmVmPSIjRGVqYVZ1U2Fucy0zNyIvPiYjeGE7ICAgICA8dXNlIHg9IjIyMi42NTYyNSIgeGxpbms6aHJlZj0iI0RlamFWdVNhbnMtMzUiLz4mI3hhOyAgICA8L2c+JiN4YTsgICA8L2c+JiN4YTsgICA8ZyBpZD0idGV4dF81MCI+JiN4YTsgICAgJiN4YTsgICAgPGcgdHJhbnNmb3JtPSJ0cmFuc2xhdGUoMzU5LjE5OTQxNyAyMzMuOTE1KSBzY2FsZSgwLjA4IC0wLjA4KSIgc3R5bGU9ImZpbGw6ICNmZmZmZmYiPiYjeGE7ICAgICA8dXNlIHhsaW5rOmhyZWY9IiNEZWphVnVTYW5zLTMwIi8+JiN4YTsgICAgIDx1c2UgeD0iNjMuNjIzMDQ3IiB4bGluazpocmVmPSIjRGVqYVZ1U2Fucy0yZSIvPiYjeGE7ICAgICA8dXNlIHg9Ijk1LjQxMDE1NiIgeGxpbms6aHJlZj0iI0RlamFWdVNhbnMtMzAiLz4mI3hhOyAgICAgPHVzZSB4PSIxNTkuMDMzMjAzIiB4bGluazpocmVmPSIjRGVqYVZ1U2Fucy0zNiIvPiYjeGE7ICAgICA8dXNlIHg9IjIyMi42NTYyNSIgeGxpbms6aHJlZj0iI0RlamFWdVNhbnMtMzAiLz4mI3hhOyAgICA8L2c+JiN4YTsgICA8L2c+JiN4YTsgICA8ZyBpZD0idGV4dF81MSI+JiN4YTsgICAgJiN4YTsgICAgPGcgdHJhbnNmb3JtPSJ0cmFuc2xhdGUoNTIuODI2MDgzIDI3NC4wOCkgc2NhbGUoMC4wOCAtMC4wOCkiIHN0eWxlPSJmaWxsOiAjZmZmZmZmIj4mI3hhOyAgICAgPHVzZSB4bGluazpocmVmPSIjRGVqYVZ1U2Fucy0zMCIvPiYjeGE7ICAgICA8dXNlIHg9IjYzLjYyMzA0NyIgeGxpbms6aHJlZj0iI0RlamFWdVNhbnMtMmUiLz4mI3hhOyAgICAgPHVzZSB4PSI5NS40MTAxNTYiIHhsaW5rOmhyZWY9IiNEZWphVnVTYW5zLTMwIi8+JiN4YTsgICAgIDx1c2UgeD0iMTU5LjAzMzIwMyIgeGxpbms6aHJlZj0iI0RlamFWdVNhbnMtMzYiLz4mI3hhOyAgICAgPHVzZSB4PSIyMjIuNjU2MjUiIHhsaW5rOmhyZWY9IiNEZWphVnVTYW5zLTM3Ii8+JiN4YTsgICAgPC9nPiYjeGE7ICAgPC9nPiYjeGE7ICAgPGcgaWQ9InRleHRfNTIiPiYjeGE7ICAgICYjeGE7ICAgIDxnIHRyYW5zZm9ybT0idHJhbnNsYXRlKDExNC4xMDA3NSAyNzQuMDgpIHNjYWxlKDAuMDggLTAuMDgpIiBzdHlsZT0iZmlsbDogI2ZmZmZmZiI+JiN4YTsgICAgIDx1c2UgeGxpbms6aHJlZj0iI0RlamFWdVNhbnMtMzAiLz4mI3hhOyAgICAgPHVzZSB4PSI2My42MjMwNDciIHhsaW5rOmhyZWY9IiNEZWphVnVTYW5zLTJlIi8+JiN4YTsgICAgIDx1c2UgeD0iOTUuNDEwMTU2IiB4bGluazpocmVmPSIjRGVqYVZ1U2Fucy0zMCIvPiYjeGE7ICAgICA8dXNlIHg9IjE1OS4wMzMyMDMiIHhsaW5rOmhyZWY9IiNEZWphVnVTYW5zLTM3Ii8+JiN4YTsgICAgIDx1c2UgeD0iMjIyLjY1NjI1IiB4bGluazpocmVmPSIjRGVqYVZ1U2Fucy0zMSIvPiYjeGE7ICAgIDwvZz4mI3hhOyAgIDwvZz4mI3hhOyAgIDxnIGlkPSJ0ZXh0XzUzIj4mI3hhOyAgICAmI3hhOyAgICA8ZyB0cmFuc2Zvcm09InRyYW5zbGF0ZSgxNzUuMzc1NDE3IDI3NC4wOCkgc2NhbGUoMC4wOCAtMC4wOCkiIHN0eWxlPSJmaWxsOiAjZmZmZmZmIj4mI3hhOyAgICAgPHVzZSB4bGluazpocmVmPSIjRGVqYVZ1U2Fucy0zMCIvPiYjeGE7ICAgICA8dXNlIHg9IjYzLjYyMzA0NyIgeGxpbms6aHJlZj0iI0RlamFWdVNhbnMtMmUiLz4mI3hhOyAgICAgPHVzZSB4PSI5NS40MTAxNTYiIHhsaW5rOmhyZWY9IiNEZWphVnVTYW5zLTMwIi8+JiN4YTsgICAgIDx1c2UgeD0iMTU5LjAzMzIwMyIgeGxpbms6aHJlZj0iI0RlamFWdVNhbnMtMzciLz4mI3hhOyAgICAgPHVzZSB4PSIyMjIuNjU2MjUiIHhsaW5rOmhyZWY9IiNEZWphVnVTYW5zLTMzIi8+JiN4YTsgICAgPC9nPiYjeGE7ICAgPC9nPiYjeGE7ICAgPGcgaWQ9InRleHRfNTQiPiYjeGE7ICAgICYjeGE7ICAgIDxnIHRyYW5zZm9ybT0idHJhbnNsYXRlKDIzNi42NTAwODMgMjc0LjA4KSBzY2FsZSgwLjA4IC0wLjA4KSIgc3R5bGU9ImZpbGw6ICNmZmZmZmYiPiYjeGE7ICAgICA8dXNlIHhsaW5rOmhyZWY9IiNEZWphVnVTYW5zLTMwIi8+JiN4YTsgICAgIDx1c2UgeD0iNjMuNjIzMDQ3IiB4bGluazpocmVmPSIjRGVqYVZ1U2Fucy0yZSIvPiYjeGE7ICAgICA8dXNlIHg9Ijk1LjQxMDE1NiIgeGxpbms6aHJlZj0iI0RlamFWdVNhbnMtMzAiLz4mI3hhOyAgICAgPHVzZSB4PSIxNTkuMDMzMjAzIiB4bGluazpocmVmPSIjRGVqYVZ1U2Fucy0zNyIvPiYjeGE7ICAgICA8dXNlIHg9IjIyMi42NTYyNSIgeGxpbms6aHJlZj0iI0RlamFWdVNhbnMtMzQiLz4mI3hhOyAgICA8L2c+JiN4YTsgICA8L2c+JiN4YTsgICA8ZyBpZD0idGV4dF81NSI+JiN4YTsgICAgJiN4YTsgICAgPGcgdHJhbnNmb3JtPSJ0cmFuc2xhdGUoMjk3LjkyNDc1IDI3NC4wOCkgc2NhbGUoMC4wOCAtMC4wOCkiIHN0eWxlPSJmaWxsOiAjZmZmZmZmIj4mI3hhOyAgICAgPHVzZSB4bGluazpocmVmPSIjRGVqYVZ1U2Fucy0zMCIvPiYjeGE7ICAgICA8dXNlIHg9IjYzLjYyMzA0NyIgeGxpbms6aHJlZj0iI0RlamFWdVNhbnMtMmUiLz4mI3hhOyAgICAgPHVzZSB4PSI5NS40MTAxNTYiIHhsaW5rOmhyZWY9IiNEZWphVnVTYW5zLTMwIi8+JiN4YTsgICAgIDx1c2UgeD0iMTU5LjAzMzIwMyIgeGxpbms6aHJlZj0iI0RlamFWdVNhbnMtMzciLz4mI3hhOyAgICAgPHVzZSB4PSIyMjIuNjU2MjUiIHhsaW5rOmhyZWY9IiNEZWphVnVTYW5zLTMzIi8+JiN4YTsgICAgPC9nPiYjeGE7ICAgPC9nPiYjeGE7ICAgPGcgaWQ9InRleHRfNTYiPiYjeGE7ICAgICYjeGE7ICAgIDxnIHRyYW5zZm9ybT0idHJhbnNsYXRlKDM1OS4xOTk0MTcgMjc0LjA4KSBzY2FsZSgwLjA4IC0wLjA4KSIgc3R5bGU9ImZpbGw6ICNmZmZmZmYiPiYjeGE7ICAgICA8dXNlIHhsaW5rOmhyZWY9IiNEZWphVnVTYW5zLTMwIi8+JiN4YTsgICAgIDx1c2UgeD0iNjMuNjIzMDQ3IiB4bGluazpocmVmPSIjRGVqYVZ1U2Fucy0yZSIvPiYjeGE7ICAgICA8dXNlIHg9Ijk1LjQxMDE1NiIgeGxpbms6aHJlZj0iI0RlamFWdVNhbnMtMzAiLz4mI3hhOyAgICAgPHVzZSB4PSIxNTkuMDMzMjAzIiB4bGluazpocmVmPSIjRGVqYVZ1U2Fucy0zNSIvPiYjeGE7ICAgICA8dXNlIHg9IjIyMi42NTYyNSIgeGxpbms6aHJlZj0iI0RlamFWdVNhbnMtMzkiLz4mI3hhOyAgICA8L2c+JiN4YTsgICA8L2c+JiN4YTsgICA8ZyBpZD0idGV4dF81NyI+JiN4YTsgICAgJiN4YTsgICAgPGcgdHJhbnNmb3JtPSJ0cmFuc2xhdGUoNTIuODI2MDgzIDMxNC4yNDUpIHNjYWxlKDAuMDggLTAuMDgpIiBzdHlsZT0iZmlsbDogI2ZmZmZmZiI+JiN4YTsgICAgIDx1c2UgeGxpbms6aHJlZj0iI0RlamFWdVNhbnMtMzAiLz4mI3hhOyAgICAgPHVzZSB4PSI2My42MjMwNDciIHhsaW5rOmhyZWY9IiNEZWphVnVTYW5zLTJlIi8+JiN4YTsgICAgIDx1c2UgeD0iOTUuNDEwMTU2IiB4bGluazpocmVmPSIjRGVqYVZ1U2Fucy0zMCIvPiYjeGE7ICAgICA8dXNlIHg9IjE1OS4wMzMyMDMiIHhsaW5rOmhyZWY9IiNEZWphVnVTYW5zLTM2Ii8+JiN4YTsgICAgIDx1c2UgeD0iMjIyLjY1NjI1IiB4bGluazpocmVmPSIjRGVqYVZ1U2Fucy0zNyIvPiYjeGE7ICAgIDwvZz4mI3hhOyAgIDwvZz4mI3hhOyAgIDxnIGlkPSJ0ZXh0XzU4Ij4mI3hhOyAgICAmI3hhOyAgICA8ZyB0cmFuc2Zvcm09InRyYW5zbGF0ZSgxMTQuMTAwNzUgMzE0LjI0NSkgc2NhbGUoMC4wOCAtMC4wOCkiIHN0eWxlPSJmaWxsOiAjZmZmZmZmIj4mI3hhOyAgICAgPHVzZSB4bGluazpocmVmPSIjRGVqYVZ1U2Fucy0zMCIvPiYjeGE7ICAgICA8dXNlIHg9IjYzLjYyMzA0NyIgeGxpbms6aHJlZj0iI0RlamFWdVNhbnMtMmUiLz4mI3hhOyAgICAgPHVzZSB4PSI5NS40MTAxNTYiIHhsaW5rOmhyZWY9IiNEZWphVnVTYW5zLTMwIi8+JiN4YTsgICAgIDx1c2UgeD0iMTU5LjAzMzIwMyIgeGxpbms6aHJlZj0iI0RlamFWdVNhbnMtMzciLz4mI3hhOyAgICAgPHVzZSB4PSIyMjIuNjU2MjUiIHhsaW5rOmhyZWY9IiNEZWphVnVTYW5zLTMwIi8+JiN4YTsgICAgPC9nPiYjeGE7ICAgPC9nPiYjeGE7ICAgPGcgaWQ9InRleHRfNTkiPiYjeGE7ICAgICYjeGE7ICAgIDxnIHRyYW5zZm9ybT0idHJhbnNsYXRlKDE3NS4zNzU0MTcgMzE0LjI0NSkgc2NhbGUoMC4wOCAtMC4wOCkiIHN0eWxlPSJmaWxsOiAjZmZmZmZmIj4mI3hhOyAgICAgPHVzZSB4bGluazpocmVmPSIjRGVqYVZ1U2Fucy0zMCIvPiYjeGE7ICAgICA8dXNlIHg9IjYzLjYyMzA0NyIgeGxpbms6aHJlZj0iI0RlamFWdVNhbnMtMmUiLz4mI3hhOyAgICAgPHVzZSB4PSI5NS40MTAxNTYiIHhsaW5rOmhyZWY9IiNEZWphVnVTYW5zLTMwIi8+JiN4YTsgICAgIDx1c2UgeD0iMTU5LjAzMzIwMyIgeGxpbms6aHJlZj0iI0RlamFWdVNhbnMtMzciLz4mI3hhOyAgICAgPHVzZSB4PSIyMjIuNjU2MjUiIHhsaW5rOmhyZWY9IiNEZWphVnVTYW5zLTMxIi8+JiN4YTsgICAgPC9nPiYjeGE7ICAgPC9nPiYjeGE7ICAgPGcgaWQ9InRleHRfNjAiPiYjeGE7ICAgICYjeGE7ICAgIDxnIHRyYW5zZm9ybT0idHJhbnNsYXRlKDIzNi42NTAwODMgMzE0LjI0NSkgc2NhbGUoMC4wOCAtMC4wOCkiIHN0eWxlPSJmaWxsOiAjZmZmZmZmIj4mI3hhOyAgICAgPHVzZSB4bGluazpocmVmPSIjRGVqYVZ1U2Fucy0zMCIvPiYjeGE7ICAgICA8dXNlIHg9IjYzLjYyMzA0NyIgeGxpbms6aHJlZj0iI0RlamFWdVNhbnMtMmUiLz4mI3hhOyAgICAgPHVzZSB4PSI5NS40MTAxNTYiIHhsaW5rOmhyZWY9IiNEZWphVnVTYW5zLTMwIi8+JiN4YTsgICAgIDx1c2UgeD0iMTU5LjAzMzIwMyIgeGxpbms6aHJlZj0iI0RlamFWdVNhbnMtMzciLz4mI3hhOyAgICAgPHVzZSB4PSIyMjIuNjU2MjUiIHhsaW5rOmhyZWY9IiNEZWphVnVTYW5zLTMzIi8+JiN4YTsgICAgPC9nPiYjeGE7ICAgPC9nPiYjeGE7ICAgPGcgaWQ9InRleHRfNjEiPiYjeGE7ICAgICYjeGE7ICAgIDxnIHRyYW5zZm9ybT0idHJhbnNsYXRlKDI5Ny45MjQ3NSAzMTQuMjQ1KSBzY2FsZSgwLjA4IC0wLjA4KSIgc3R5bGU9ImZpbGw6ICNmZmZmZmYiPiYjeGE7ICAgICA8dXNlIHhsaW5rOmhyZWY9IiNEZWphVnVTYW5zLTMwIi8+JiN4YTsgICAgIDx1c2UgeD0iNjMuNjIzMDQ3IiB4bGluazpocmVmPSIjRGVqYVZ1U2Fucy0yZSIvPiYjeGE7ICAgICA8dXNlIHg9Ijk1LjQxMDE1NiIgeGxpbms6aHJlZj0iI0RlamFWdVNhbnMtMzAiLz4mI3hhOyAgICAgPHVzZSB4PSIxNTkuMDMzMjAzIiB4bGluazpocmVmPSIjRGVqYVZ1U2Fucy0zNiIvPiYjeGE7ICAgICA8dXNlIHg9IjIyMi42NTYyNSIgeGxpbms6aHJlZj0iI0RlamFWdVNhbnMtMzQiLz4mI3hhOyAgICA8L2c+JiN4YTsgICA8L2c+JiN4YTsgICA8ZyBpZD0idGV4dF82MiI+JiN4YTsgICAgJiN4YTsgICAgPGcgdHJhbnNmb3JtPSJ0cmFuc2xhdGUoMzU5LjE5OTQxNyAzMTQuMjQ1KSBzY2FsZSgwLjA4IC0wLjA4KSIgc3R5bGU9ImZpbGw6ICNmZmZmZmYiPiYjeGE7ICAgICA8dXNlIHhsaW5rOmhyZWY9IiNEZWphVnVTYW5zLTMwIi8+JiN4YTsgICAgIDx1c2UgeD0iNjMuNjIzMDQ3IiB4bGluazpocmVmPSIjRGVqYVZ1U2Fucy0yZSIvPiYjeGE7ICAgICA8dXNlIHg9Ijk1LjQxMDE1NiIgeGxpbms6aHJlZj0iI0RlamFWdVNhbnMtMzAiLz4mI3hhOyAgICAgPHVzZSB4PSIxNTkuMDMzMjAzIiB4bGluazpocmVmPSIjRGVqYVZ1U2Fucy0zNiIvPiYjeGE7ICAgICA8dXNlIHg9IjIyMi42NTYyNSIgeGxpbms6aHJlZj0iI0RlamFWdVNhbnMtMzAiLz4mI3hhOyAgICA8L2c+JiN4YTsgICA8L2c+JiN4YTsgIDwvZz4mI3hhOyAgPGcgaWQ9ImF4ZXNfMiI+JiN4YTsgICA8ZyBpZD0icGF0Y2hfNyI+JiN4YTsgICAgPHBhdGggc3R5bGU9ImZpbGw6ICNmZmZmZmYiIGQ9Ik0gNDI0LjI2NiAzMzIuMTIgJiMxMDtMIDQ0MC4zMzIgMzMyLjEyICYjMTA7TCA0NDAuMzMyIDEwLjggJiMxMDtMIDQyNC4yNjYgMTAuOCAmIzEwO3oiLz4mI3hhOyAgIDwvZz4mI3hhOyAgIDxpbWFnZSBoZWlnaHQ9IjMyMS4xMiIgd2lkdGg9IjE2LjU2IiB5PSItMTAuOCIgeD0iNDI0LjA4IiB0cmFuc2Zvcm09InNjYWxlKDEgLTEpIHRyYW5zbGF0ZSgwIC0zMjEuMTIpIiBpZD0iaW1hZ2UzODY3NGZhMzdhIiB4bGluazpocmVmPSJkYXRhOmltYWdlL3BuZztiYXNlNjQsJiMxMDtpVkJPUncwS0dnb0FBQUFOU1VoRVVnQUFBQmNBQUFHK0NBWUFBQUI0VHA4eUFBQUNUa2xFUVZSNG5PMmQyNDNrUUJERDJoNkh0aUZjL3FIc2JBRG1ydzRnUUFaUUVGU3E2cmIzNGV2bit2YzlJNTV6M2F2YVoxZjVuUE5jOXpVcnZsV2U1MWpjYThzUlI5R3EvTHAzOWNXMm5LRXRSUkdaanY5enRSV0Jvb2hNbGJkYmtKUWo2eWhteTVzZVc1RHRBVzF1YU1yZkZFVmthOHRYcTN4WjNqdEU0aWg2bFMrSHFKd2pLVWVLSWxKRGtiWG4wK0pXVzc0TkViQWVvbUZ4cnkzTENXMHJJdE16MUd5TE9JcTc0dDU5cnJabFY5ejdqc3M3Uk9LR21vZW9LRUx4b2tnVVJhUW9JdW9uNkdIeEpwVHdUbWhSUkx5MkZFV2tLQ0xxS0ZyM2VWRWt4RkgwS3UveVR6UkVpTmR6c1MxZTVRMFJGcC85dGU4eDI1SnlwSzJJdEZzUXIvSWFpcVFjYVNzaURkSC9MMTVERWEvbk5SVHhObFNzdkdPT2FJaVF0ZkxkZTRzYWlxUWNhU3NpYXVXNzNlS05vdmlXNjQyaXRxSGJBOXJiMEpRVFJSRnB0eURpQTNyNlhuSDRDMmcxbE9sRk1mS2NVMFBmalA5SGNjY2NNTFdsS0NMVGswaDhXSGlqNkwxYXRCVUpjeFNIeGIyZW14dXFIYUpiN0hsUmZGTVVFWEVVYisxemFGRWt6RkhNRnFBb0l0UEZWVU9SbENOVDVXWmJ0RmVMR2txa0hQRU9rZG1XNjNkV3ZDZ2lSUkVSUi9IajlYd2JSV3REdlVQMEVkOFZkMmt4TjFTci9ENk5QeFQvWkF1d0hpS3Q1OHNEV215TFZua0hOQmJQRm1JZFJhdnlEbWpDdk04NzVnRHhGZHI3MkxJYy93NExwQ2dpMC9FWGIwVnZGTDAveVYybXhYejUxMGJSUFA3OStPeU5lQ3VLeDMvN0hHcTF4YXQ4K0lWUHNlZlBVdnI2bU5zVlh6ZlUrcFdmWmZYbm8vMzQwYTF0cURtS3cyOXdtNk80cSs5dDZQb2sydFgzTnZRUEhOT09mdDZINVhVQUFBQUFTVVZPUks1Q1lJST0iLz4mI3hhOyAgIDxnIGlkPSJtYXRwbG90bGliLmF4aXNfMyIvPiYjeGE7ICAgPGcgaWQ9Im1hdHBsb3RsaWIuYXhpc180Ij4mI3hhOyAgICA8ZyBpZD0ieXRpY2tfOSI+JiN4YTsgICAgIDxnIGlkPSJsaW5lMmRfMTUiPiYjeGE7ICAgICAgPGRlZnM+JiN4YTsgICAgICAgPHBhdGggc3R5bGU9InN0cm9rZTogIzAwMDAwMDsgc3Ryb2tlLXdpZHRoOiAwLjgiIGQ9Ik0gMCAwICYjMTA7TCAzLjUgMCIgaWQ9Im1iY2IwNmRiMzE1Ii8+JiN4YTsgICAgICA8L2RlZnM+JiN4YTsgICAgICA8Zz4mI3hhOyAgICAgICA8dXNlIHN0eWxlPSJzdHJva2U6ICMwMDAwMDA7IHN0cm9rZS13aWR0aDogMC44IiB5PSIzMTkuODQwMjU1IiB4PSI0NDAuMzMyIiB4bGluazpocmVmPSIjbWJjYjA2ZGIzMTUiLz4mI3hhOyAgICAgIDwvZz4mI3hhOyAgICAgPC9nPiYjeGE7ICAgICA8ZyBpZD0idGV4dF82MyI+JiN4YTsgICAgICAmI3hhOyAgICAgIDxnIHRyYW5zZm9ybT0idHJhbnNsYXRlKDQ0Ny4zMzIgMzIzLjYzOTQ3NCkgc2NhbGUoMC4xIC0wLjEpIj4mI3hhOyAgICAgICA8dXNlIHhsaW5rOmhyZWY9IiNEZWphVnVTYW5zLTMwIi8+JiN4YTsgICAgICAgPHVzZSB4PSI2My42MjMwNDciIHhsaW5rOmhyZWY9IiNEZWphVnVTYW5zLTJlIi8+JiN4YTsgICAgICAgPHVzZSB4PSI5NS40MTAxNTYiIHhsaW5rOmhyZWY9IiNEZWphVnVTYW5zLTMwIi8+JiN4YTsgICAgICAgPHVzZSB4PSIxNTkuMDMzMjAzIiB4bGluazpocmVmPSIjRGVqYVZ1U2Fucy0zNiIvPiYjeGE7ICAgICAgIDx1c2UgeD0iMjIyLjY1NjI1IiB4bGluazpocmVmPSIjRGVqYVZ1U2Fucy0zMCIvPiYjeGE7ICAgICAgPC9nPiYjeGE7ICAgICA8L2c+JiN4YTsgICAgPC9nPiYjeGE7ICAgIDxnIGlkPSJ5dGlja18xMCI+JiN4YTsgICAgIDxnIGlkPSJsaW5lMmRfMTYiPiYjeGE7ICAgICAgPGc+JiN4YTsgICAgICAgPHVzZSBzdHlsZT0ic3Ryb2tlOiAjMDAwMDAwOyBzdHJva2Utd2lkdGg6IDAuOCIgeT0iMjc4LjkwNzc3MSIgeD0iNDQwLjMzMiIgeGxpbms6aHJlZj0iI21iY2IwNmRiMzE1Ii8+JiN4YTsgICAgICA8L2c+JiN4YTsgICAgIDwvZz4mI3hhOyAgICAgPGcgaWQ9InRleHRfNjQiPiYjeGE7ICAgICAgJiN4YTsgICAgICA8ZyB0cmFuc2Zvcm09InRyYW5zbGF0ZSg0NDcuMzMyIDI4Mi43MDY5ODkpIHNjYWxlKDAuMSAtMC4xKSI+JiN4YTsgICAgICAgPHVzZSB4bGluazpocmVmPSIjRGVqYVZ1U2Fucy0zMCIvPiYjeGE7ICAgICAgIDx1c2UgeD0iNjMuNjIzMDQ3IiB4bGluazpocmVmPSIjRGVqYVZ1U2Fucy0yZSIvPiYjeGE7ICAgICAgIDx1c2UgeD0iOTUuNDEwMTU2IiB4bGluazpocmVmPSIjRGVqYVZ1U2Fucy0zMCIvPiYjeGE7ICAgICAgIDx1c2UgeD0iMTU5LjAzMzIwMyIgeGxpbms6aHJlZj0iI0RlamFWdVNhbnMtMzYiLz4mI3hhOyAgICAgICA8dXNlIHg9IjIyMi42NTYyNSIgeGxpbms6aHJlZj0iI0RlamFWdVNhbnMtMzIiLz4mI3hhOyAgICAgIDwvZz4mI3hhOyAgICAgPC9nPiYjeGE7ICAgIDwvZz4mI3hhOyAgICA8ZyBpZD0ieXRpY2tfMTEiPiYjeGE7ICAgICA8ZyBpZD0ibGluZTJkXzE3Ij4mI3hhOyAgICAgIDxnPiYjeGE7ICAgICAgIDx1c2Ugc3R5bGU9InN0cm9rZTogIzAwMDAwMDsgc3Ryb2tlLXdpZHRoOiAwLjgiIHk9IjIzNy45NzUyODciIHg9IjQ0MC4zMzIiIHhsaW5rOmhyZWY9IiNtYmNiMDZkYjMxNSIvPiYjeGE7ICAgICAgPC9nPiYjeGE7ICAgICA8L2c+JiN4YTsgICAgIDxnIGlkPSJ0ZXh0XzY1Ij4mI3hhOyAgICAgICYjeGE7ICAgICAgPGcgdHJhbnNmb3JtPSJ0cmFuc2xhdGUoNDQ3LjMzMiAyNDEuNzc0NTA1KSBzY2FsZSgwLjEgLTAuMSkiPiYjeGE7ICAgICAgIDx1c2UgeGxpbms6aHJlZj0iI0RlamFWdVNhbnMtMzAiLz4mI3hhOyAgICAgICA8dXNlIHg9IjYzLjYyMzA0NyIgeGxpbms6aHJlZj0iI0RlamFWdVNhbnMtMmUiLz4mI3hhOyAgICAgICA8dXNlIHg9Ijk1LjQxMDE1NiIgeGxpbms6aHJlZj0iI0RlamFWdVNhbnMtMzAiLz4mI3hhOyAgICAgICA8dXNlIHg9IjE1OS4wMzMyMDMiIHhsaW5rOmhyZWY9IiNEZWphVnVTYW5zLTM2Ii8+JiN4YTsgICAgICAgPHVzZSB4PSIyMjIuNjU2MjUiIHhsaW5rOmhyZWY9IiNEZWphVnVTYW5zLTM0Ii8+JiN4YTsgICAgICA8L2c+JiN4YTsgICAgIDwvZz4mI3hhOyAgICA8L2c+JiN4YTsgICAgPGcgaWQ9Inl0aWNrXzEyIj4mI3hhOyAgICAgPGcgaWQ9ImxpbmUyZF8xOCI+JiN4YTsgICAgICA8Zz4mI3hhOyAgICAgICA8dXNlIHN0eWxlPSJzdHJva2U6ICMwMDAwMDA7IHN0cm9rZS13aWR0aDogMC44IiB5PSIxOTcuMDQyODAzIiB4PSI0NDAuMzMyIiB4bGluazpocmVmPSIjbWJjYjA2ZGIzMTUiLz4mI3hhOyAgICAgIDwvZz4mI3hhOyAgICAgPC9nPiYjeGE7ICAgICA8ZyBpZD0idGV4dF82NiI+JiN4YTsgICAgICAmI3hhOyAgICAgIDxnIHRyYW5zZm9ybT0idHJhbnNsYXRlKDQ0Ny4zMzIgMjAwLjg0MjAyMSkgc2NhbGUoMC4xIC0wLjEpIj4mI3hhOyAgICAgICA8dXNlIHhsaW5rOmhyZWY9IiNEZWphVnVTYW5zLTMwIi8+JiN4YTsgICAgICAgPHVzZSB4PSI2My42MjMwNDciIHhsaW5rOmhyZWY9IiNEZWphVnVTYW5zLTJlIi8+JiN4YTsgICAgICAgPHVzZSB4PSI5NS40MTAxNTYiIHhsaW5rOmhyZWY9IiNEZWphVnVTYW5zLTMwIi8+JiN4YTsgICAgICAgPHVzZSB4PSIxNTkuMDMzMjAzIiB4bGluazpocmVmPSIjRGVqYVZ1U2Fucy0zNiIvPiYjeGE7ICAgICAgIDx1c2UgeD0iMjIyLjY1NjI1IiB4bGluazpocmVmPSIjRGVqYVZ1U2Fucy0zNiIvPiYjeGE7ICAgICAgPC9nPiYjeGE7ICAgICA8L2c+JiN4YTsgICAgPC9nPiYjeGE7ICAgIDxnIGlkPSJ5dGlja18xMyI+JiN4YTsgICAgIDxnIGlkPSJsaW5lMmRfMTkiPiYjeGE7ICAgICAgPGc+JiN4YTsgICAgICAgPHVzZSBzdHlsZT0ic3Ryb2tlOiAjMDAwMDAwOyBzdHJva2Utd2lkdGg6IDAuOCIgeT0iMTU2LjExMDMxOCIgeD0iNDQwLjMzMiIgeGxpbms6aHJlZj0iI21iY2IwNmRiMzE1Ii8+JiN4YTsgICAgICA8L2c+JiN4YTsgICAgIDwvZz4mI3hhOyAgICAgPGcgaWQ9InRleHRfNjciPiYjeGE7ICAgICAgJiN4YTsgICAgICA8ZyB0cmFuc2Zvcm09InRyYW5zbGF0ZSg0NDcuMzMyIDE1OS45MDk1MzcpIHNjYWxlKDAuMSAtMC4xKSI+JiN4YTsgICAgICAgPHVzZSB4bGluazpocmVmPSIjRGVqYVZ1U2Fucy0zMCIvPiYjeGE7ICAgICAgIDx1c2UgeD0iNjMuNjIzMDQ3IiB4bGluazpocmVmPSIjRGVqYVZ1U2Fucy0yZSIvPiYjeGE7ICAgICAgIDx1c2UgeD0iOTUuNDEwMTU2IiB4bGluazpocmVmPSIjRGVqYVZ1U2Fucy0zMCIvPiYjeGE7ICAgICAgIDx1c2UgeD0iMTU5LjAzMzIwMyIgeGxpbms6aHJlZj0iI0RlamFWdVNhbnMtMzYiLz4mI3hhOyAgICAgICA8dXNlIHg9IjIyMi42NTYyNSIgeGxpbms6aHJlZj0iI0RlamFWdVNhbnMtMzgiLz4mI3hhOyAgICAgIDwvZz4mI3hhOyAgICAgPC9nPiYjeGE7ICAgIDwvZz4mI3hhOyAgICA8ZyBpZD0ieXRpY2tfMTQiPiYjeGE7ICAgICA8ZyBpZD0ibGluZTJkXzIwIj4mI3hhOyAgICAgIDxnPiYjeGE7ICAgICAgIDx1c2Ugc3R5bGU9InN0cm9rZTogIzAwMDAwMDsgc3Ryb2tlLXdpZHRoOiAwLjgiIHk9IjExNS4xNzc4MzQiIHg9IjQ0MC4zMzIiIHhsaW5rOmhyZWY9IiNtYmNiMDZkYjMxNSIvPiYjeGE7ICAgICAgPC9nPiYjeGE7ICAgICA8L2c+JiN4YTsgICAgIDxnIGlkPSJ0ZXh0XzY4Ij4mI3hhOyAgICAgICYjeGE7ICAgICAgPGcgdHJhbnNmb3JtPSJ0cmFuc2xhdGUoNDQ3LjMzMiAxMTguOTc3MDUzKSBzY2FsZSgwLjEgLTAuMSkiPiYjeGE7ICAgICAgIDx1c2UgeGxpbms6aHJlZj0iI0RlamFWdVNhbnMtMzAiLz4mI3hhOyAgICAgICA8dXNlIHg9IjYzLjYyMzA0NyIgeGxpbms6aHJlZj0iI0RlamFWdVNhbnMtMmUiLz4mI3hhOyAgICAgICA8dXNlIHg9Ijk1LjQxMDE1NiIgeGxpbms6aHJlZj0iI0RlamFWdVNhbnMtMzAiLz4mI3hhOyAgICAgICA8dXNlIHg9IjE1OS4wMzMyMDMiIHhsaW5rOmhyZWY9IiNEZWphVnVTYW5zLTM3Ii8+JiN4YTsgICAgICAgPHVzZSB4PSIyMjIuNjU2MjUiIHhsaW5rOmhyZWY9IiNEZWphVnVTYW5zLTMwIi8+JiN4YTsgICAgICA8L2c+JiN4YTsgICAgIDwvZz4mI3hhOyAgICA8L2c+JiN4YTsgICAgPGcgaWQ9Inl0aWNrXzE1Ij4mI3hhOyAgICAgPGcgaWQ9ImxpbmUyZF8yMSI+JiN4YTsgICAgICA8Zz4mI3hhOyAgICAgICA8dXNlIHN0eWxlPSJzdHJva2U6ICMwMDAwMDA7IHN0cm9rZS13aWR0aDogMC44IiB5PSI3NC4yNDUzNSIgeD0iNDQwLjMzMiIgeGxpbms6aHJlZj0iI21iY2IwNmRiMzE1Ii8+JiN4YTsgICAgICA8L2c+JiN4YTsgICAgIDwvZz4mI3hhOyAgICAgPGcgaWQ9InRleHRfNjkiPiYjeGE7ICAgICAgJiN4YTsgICAgICA8ZyB0cmFuc2Zvcm09InRyYW5zbGF0ZSg0NDcuMzMyIDc4LjA0NDU2OSkgc2NhbGUoMC4xIC0wLjEpIj4mI3hhOyAgICAgICA8dXNlIHhsaW5rOmhyZWY9IiNEZWphVnVTYW5zLTMwIi8+JiN4YTsgICAgICAgPHVzZSB4PSI2My42MjMwNDciIHhsaW5rOmhyZWY9IiNEZWphVnVTYW5zLTJlIi8+JiN4YTsgICAgICAgPHVzZSB4PSI5NS40MTAxNTYiIHhsaW5rOmhyZWY9IiNEZWphVnVTYW5zLTMwIi8+JiN4YTsgICAgICAgPHVzZSB4PSIxNTkuMDMzMjAzIiB4bGluazpocmVmPSIjRGVqYVZ1U2Fucy0zNyIvPiYjeGE7ICAgICAgIDx1c2UgeD0iMjIyLjY1NjI1IiB4bGluazpocmVmPSIjRGVqYVZ1U2Fucy0zMiIvPiYjeGE7ICAgICAgPC9nPiYjeGE7ICAgICA8L2c+JiN4YTsgICAgPC9nPiYjeGE7ICAgIDxnIGlkPSJ5dGlja18xNiI+JiN4YTsgICAgIDxnIGlkPSJsaW5lMmRfMjIiPiYjeGE7ICAgICAgPGc+JiN4YTsgICAgICAgPHVzZSBzdHlsZT0ic3Ryb2tlOiAjMDAwMDAwOyBzdHJva2Utd2lkdGg6IDAuOCIgeT0iMzMuMzEyODY2IiB4PSI0NDAuMzMyIiB4bGluazpocmVmPSIjbWJjYjA2ZGIzMTUiLz4mI3hhOyAgICAgIDwvZz4mI3hhOyAgICAgPC9nPiYjeGE7ICAgICA8ZyBpZD0idGV4dF83MCI+JiN4YTsgICAgICAmI3hhOyAgICAgIDxnIHRyYW5zZm9ybT0idHJhbnNsYXRlKDQ0Ny4zMzIgMzcuMTEyMDg1KSBzY2FsZSgwLjEgLTAuMSkiPiYjeGE7ICAgICAgIDx1c2UgeGxpbms6aHJlZj0iI0RlamFWdVNhbnMtMzAiLz4mI3hhOyAgICAgICA8dXNlIHg9IjYzLjYyMzA0NyIgeGxpbms6aHJlZj0iI0RlamFWdVNhbnMtMmUiLz4mI3hhOyAgICAgICA8dXNlIHg9Ijk1LjQxMDE1NiIgeGxpbms6aHJlZj0iI0RlamFWdVNhbnMtMzAiLz4mI3hhOyAgICAgICA8dXNlIHg9IjE1OS4wMzMyMDMiIHhsaW5rOmhyZWY9IiNEZWphVnVTYW5zLTM3Ii8+JiN4YTsgICAgICAgPHVzZSB4PSIyMjIuNjU2MjUiIHhsaW5rOmhyZWY9IiNEZWphVnVTYW5zLTM0Ii8+JiN4YTsgICAgICA8L2c+JiN4YTsgICAgIDwvZz4mI3hhOyAgICA8L2c+JiN4YTsgICA8L2c+JiN4YTsgICA8ZyBpZD0iTGluZUNvbGxlY3Rpb25fMSIvPiYjeGE7ICAgPGcgaWQ9InBhdGNoXzgiPiYjeGE7ICAgIDxwYXRoIHN0eWxlPSJmaWxsOiBub25lOyBzdHJva2U6ICMwMDAwMDA7IHN0cm9rZS13aWR0aDogMC44OyBzdHJva2UtbGluZWpvaW46IG1pdGVyOyBzdHJva2UtbGluZWNhcDogc3F1YXJlIiBkPSJNIDQyNC4yNjYgMzMyLjEyICYjMTA7TCA0MzIuMjk5IDMzMi4xMiAmIzEwO0wgNDQwLjMzMiAzMzIuMTIgJiMxMDtMIDQ0MC4zMzIgMTAuOCAmIzEwO0wgNDMyLjI5OSAxMC44ICYjMTA7TCA0MjQuMjY2IDEwLjggJiMxMDtMIDQyNC4yNjYgMzMyLjEyICYjMTA7eiIvPiYjeGE7ICAgPC9nPiYjeGE7ICA8L2c+JiN4YTsgPC9nPiYjeGE7IDxkZWZzPiYjeGE7ICA8Y2xpcFBhdGggaWQ9InA3YzFiMWVmNzYwIj4mI3hhOyAgIDxyZWN0IGhlaWdodD0iMzIxLjMyIiB3aWR0aD0iMzY3LjY0OCIgeT0iMTAuOCIgeD0iMzMuNjQiLz4mI3hhOyAgPC9jbGlwUGF0aD4mI3hhOyA8L2RlZnM+JiN4YTs8L3N2Zz4=;" vertex="1" parent="1">
          <mxGeometry x="180" y="300" width="588" height="420" as="geometry" />
        </mxCell>
        <mxCell id="QzYAzKthx8N8dxTdfcL3-3" value="$$\rho$$" style="rounded=0;whiteSpace=wrap;html=1;fillColor=none;strokeColor=none;fontFamily=Times New Roman;fontSize=28;" vertex="1" parent="1">
          <mxGeometry x="150" y="470" width="40" height="40" as="geometry" />
        </mxCell>
        <mxCell id="QzYAzKthx8N8dxTdfcL3-5" value="" style="rounded=0;whiteSpace=wrap;html=1;" vertex="1" parent="1">
          <mxGeometry x="20" y="-20" width="120" height="60" as="geometry" />
        </mxCell>
        <mxCell id="QzYAzKthx8N8dxTdfcL3-6" value="$$\alpha$$" style="rounded=0;whiteSpace=wrap;html=1;fillColor=none;strokeColor=none;fontFamily=Times New Roman;fontSize=28;" vertex="1" parent="1">
          <mxGeometry x="420" y="700" width="40" height="40" as="geometry" />
        </mxCell>
        <mxCell id="QzYAzKthx8N8dxTdfcL3-7" value="Recall@5" style="rounded=0;whiteSpace=wrap;html=1;fillColor=none;strokeColor=none;fontFamily=Times New Roman;fontSize=20;rotation=-90;" vertex="1" parent="1">
          <mxGeometry x="660" y="490" width="180" height="40" as="geometry" />
        </mxCell>
        <mxCell id="QzYAzKthx8N8dxTdfcL3-9" value="Games" style="text;html=1;whiteSpace=wrap;strokeColor=none;fillColor=none;align=center;verticalAlign=middle;rounded=0;fontFamily=Times New Roman;fontSize=30;" vertex="1" parent="1">
          <mxGeometry x="385" y="260" width="110" height="30" as="geometry" />
        </mxCell>
      </root>
    </mxGraphModel>
  </diagram>
</mxfile>
